<svg width="301" height="265" viewBox="0 0 301 265" fill="none" xmlns="http://www.w3.org/2000/svg">
<path opacity="0.2" d="M67.5592 245.499C46.3057 233.421 27.9612 244.375 20.7067 252.5C19.54 253.167 15.3067 253.9 7.70669 251.5C0.106689 249.1 -0.459977 230.167 0.206689 221L1.70667 204.5V191C1.04 188.333 0.106665 181.9 1.70667 177.5C3.30666 173.1 8.37333 170 10.7067 169L20.7067 166C25.54 165 35.5067 162.5 36.7067 160.5C37.9067 158.5 43.8733 158.333 46.7067 158.5L60.2067 153.5L66.2067 151C66.7067 149.167 66.8067 145.4 63.2067 145L48.2067 142.5C46.04 142.833 40.4067 142.5 35.2067 138.5C33.7067 139.333 27.9067 139.6 16.7067 134C5.50667 128.4 7.37333 121.667 9.70667 119C10.7067 117.667 12.5067 114.2 11.7067 111C10.9067 107.8 8.70667 103.667 7.70667 102C7.04 99.6667 6.10667 94.3 7.70667 91.5C9.70667 88 14.2067 88 16.7067 86C18.7067 84.4 18.8733 81.6667 18.7067 80.5L21.2067 75L23.7067 70.5L27.2067 66.5L30.7067 65L36.2067 63.5H41.7067L48.2067 66.5C49.04 67 50.9067 67.7 51.7067 66.5C52.5067 65.3 54.7067 63 55.7067 62L58.7067 59.5L60.2067 58.5L63.2067 57.5H65.2067H67.7067H71.7067L75.2067 58.5L78.2067 59.5H79.7067L82.2067 61L84.2067 62H87.2067H92.7067L98.7067 59.5L102.707 57.5H105.707H106.707H110.207H113.207L121.5 55.5H128.5H133.5L140.5 57.5H145.5H148.5L154.5 59.5L161.5 61H164.5L170.5 62H202.5L207.5 59.5L212 58.5H221H228H247L255.5 57.5H267L287 59.5V62L293 63.5L301 75V80.5V86V91.5V102L293 111L287 119V126H279L267 134V138.5V145L279 153.5L293 158.5V160.5L301 177.5L297.5 181L293 191L287 204.5L279 210V216.5L267 221V226H255.5H247L239.5 232.5H228L221 238H212L197 245.5H175.5H170.5L161.5 249.5H152.207L144.207 252.5L133.207 254L124.707 251.5L115.707 246C114.54 245.667 110.707 245.1 104.707 245.5C97.2067 246 95.2067 248 88.7067 251.5C81.7318 255.256 74.4465 249.413 67.5592 245.499Z" fill="#E8C550"/>
<g clip-path="url(#clip0_68_4107)">
<path d="M199.808 25.4118C202.445 25.7636 205.178 23.7803 205.68 21.1573C202.636 22.5776 199.064 22.8207 195.861 21.8162C199.928 18.7837 201.714 12.9874 200.068 8.16989C198.422 3.35241 193.478 -0.115159 188.419 -1.8908e-07C183.36 0.121557 177.577 5.54683 176.16 10.4347L182.947 21.797C185.044 26.1859 189.461 29.3655 194.266 29.9349C199.07 30.5043 204.104 28.4571 207.161 24.676C204.873 25.7124 202.248 25.9684 199.808 25.4054V25.4118Z" fill="#263238"/>
<path d="M196.395 52.8708C193.007 29.2184 187.008 3.25004 153.439 5.66838C153.439 5.66838 130.51 10.4027 120.684 25.7764C114.907 34.8164 112.137 73.062 111.145 103.848V103.861C111.107 105.115 111.622 113.854 111.59 115.076L200.456 122.523L211.101 119.33C211.101 119.33 198.505 67.5791 196.401 52.8708H196.395Z" fill="#263238"/>
<path d="M148.972 14.4716L151.075 12.4564L173.77 21.6627C177.056 21.8482 179.655 24.5289 179.75 27.8365L179.553 102.28C179.585 107.328 178.574 111.698 175.549 115.722L172.359 119.957C165.089 129.618 150.141 128.825 144.383 118.179C143.983 117.437 143.703 116.784 143.582 116.253C143.462 115.588 143.284 115.153 143.246 114.59C142.572 108.601 142.534 103.406 142.534 103.406C142.127 96.8295 141.994 94.1297 141.994 94.1936C141.994 94.1936 128.095 92.5878 124.332 74.623C122.464 65.6918 122.813 53.4018 123.341 41.3037C124.065 24.5609 135.6 14.4525 148.972 14.4653V14.4716Z" fill="#FFBF9D"/>
<path d="M153.624 53.5681C153.643 54.7965 154.691 55.7945 155.962 55.8009C157.233 55.8009 158.257 54.8157 158.238 53.5873C158.219 52.359 157.17 51.3609 155.899 51.3545C154.621 51.3545 153.605 52.3398 153.624 53.5681Z" fill="#263238"/>
<path d="M130.16 53.5681C130.179 54.7965 131.228 55.7945 132.499 55.8009C133.77 55.8009 134.793 54.8157 134.774 53.5873C134.755 52.359 133.706 51.3609 132.435 51.3545C131.158 51.3545 130.141 52.3398 130.16 53.5681Z" fill="#263238"/>
<path d="M125.718 46.0956C126.016 46.3835 127.7 44.9952 130.185 44.8736C132.664 44.7201 134.551 45.9101 134.806 45.5902C134.933 45.4494 134.615 44.9184 133.789 44.3746C132.982 43.8372 131.622 43.3382 130.071 43.4213C128.527 43.5109 127.256 44.1443 126.537 44.7713C125.807 45.3982 125.571 45.9612 125.718 46.0892V46.0956Z" fill="#263238"/>
<path d="M150.91 46.3515C151.24 46.6074 152.772 45.0528 155.231 44.6753C157.678 44.2658 159.68 45.2575 159.896 44.912C160.004 44.7585 159.636 44.2594 158.765 43.8052C157.907 43.351 156.503 42.9991 154.971 43.2422C153.439 43.4853 152.244 44.253 151.59 44.9504C150.929 45.6478 150.751 46.2299 150.91 46.3451V46.3515Z" fill="#263238"/>
<path d="M142.235 64.5466C142.235 64.4059 140.684 64.2139 138.168 64.0156C137.532 63.9836 136.922 63.8877 136.795 63.4526C136.623 62.9984 136.852 62.301 137.125 61.5397C137.646 59.9659 138.187 58.3152 138.759 56.5879C141.015 49.5376 142.616 43.754 142.337 43.6645C142.051 43.5749 139.992 49.2177 137.735 56.268C137.195 58.0081 136.674 59.6588 136.185 61.2454C135.981 61.9811 135.606 62.8256 135.981 63.7661C136.178 64.2331 136.661 64.5594 137.068 64.649C137.481 64.7514 137.837 64.7449 138.155 64.7449C140.678 64.7513 142.241 64.6874 142.241 64.5466H142.235Z" fill="#263238"/>
<path d="M141.994 94.2065C141.994 94.2065 154.132 94.3792 165.762 86.5228C165.762 86.5228 160.328 99.363 142.241 98.5761L141.994 94.2065Z" fill="#FF9A6C"/>
<path d="M143.582 70.5157C144.415 69.2809 145.946 68.5516 147.51 68.6412C148.59 68.7051 149.709 69.1722 150.408 70.0231C151.107 70.874 151.304 72.1215 150.751 72.9916C150.128 73.9769 148.736 74.2648 147.535 73.9833C146.334 73.7018 145.273 72.9724 144.269 72.2367C143.989 72.032 143.703 71.8208 143.525 71.5329C143.341 71.245 143.29 70.8612 143.481 70.6053" fill="#FF9A6C"/>
<path d="M149.626 65.9029C149.219 65.9029 149.353 68.6092 147.141 70.6564C144.936 72.7037 142.051 72.5438 142.044 72.9276C142.013 73.1004 142.712 73.4203 143.926 73.3947C145.114 73.3755 146.836 72.902 148.184 71.6545C149.531 70.4005 150.058 68.7947 150.097 67.6815C150.141 66.5427 149.811 65.8837 149.626 65.9093V65.9029Z" fill="#263238"/>
<path d="M148.533 36.6142C148.876 37.2475 151.285 36.5502 154.215 36.4542C157.151 36.3007 159.604 36.7933 159.896 36.1279C160.023 35.8145 159.521 35.2451 158.485 34.7396C157.456 34.2342 155.873 33.844 154.113 33.9207C152.353 33.9975 150.808 34.5157 149.83 35.1107C148.838 35.7057 148.387 36.3135 148.539 36.6142H148.533Z" fill="#263238"/>
<path d="M126.074 35.3602C126.537 35.904 128.222 35.2323 130.274 35.0979C132.327 34.8932 134.094 35.2898 134.463 34.6757C134.621 34.3814 134.323 33.8248 133.535 33.3257C132.759 32.8267 131.482 32.4556 130.071 32.5708C128.66 32.686 127.459 33.2618 126.773 33.8823C126.074 34.5029 125.864 35.0979 126.074 35.3666V35.3602Z" fill="#263238"/>
<path d="M179.299 59.614C179.299 59.614 166.582 63.5998 159.388 32.0078C156.928 21.2085 146.982 12.4564 146.982 12.4564L151.018 11.2344C151.018 11.2344 176.09 18.3423 176.509 18.6622C176.928 18.982 182.833 31.7135 182.833 31.7135L179.293 59.6076L179.299 59.614Z" fill="#263238"/>
<path d="M176.166 58.4368C176.102 57.0869 177.494 53.8304 178.803 53.5553C182.305 52.8196 188.692 52.7876 189.201 61.8148C189.893 74.156 177.443 72.3135 177.405 71.9616C177.373 71.6865 176.388 63.0943 176.166 58.4368Z" fill="#FFBF9D"/>
<path d="M180.881 67.0737C180.932 67.0289 181.104 67.2145 181.472 67.3552C181.835 67.496 182.445 67.5727 183.074 67.2976C184.345 66.7474 185.317 64.6106 185.248 62.3842C185.216 61.2582 184.923 60.2026 184.479 59.3389C184.053 58.456 183.436 57.861 182.782 57.7778C182.127 57.6627 181.682 58.0849 181.555 58.4368C181.409 58.7951 181.504 59.0318 181.441 59.0574C181.409 59.0894 181.167 58.8654 181.237 58.3536C181.275 58.1041 181.403 57.8034 181.676 57.5539C181.955 57.298 182.381 57.1508 182.839 57.17C183.786 57.1828 184.688 58.0081 185.178 58.955C185.718 59.9019 186.074 61.0918 186.112 62.3522C186.175 64.8409 185.038 67.2401 183.296 67.8606C182.445 68.1357 181.714 67.9182 181.326 67.6431C180.932 67.3616 180.85 67.0865 180.888 67.0609L180.881 67.0737Z" fill="#FF9A6C"/>
<path d="M157.697 35.3794C156.84 32.1613 155.905 29.1224 154.876 26.4162C153.865 23.71 152.74 21.3492 151.679 19.4427C150.611 17.5362 149.607 16.0775 148.87 15.105C148.508 14.6124 148.19 14.2605 147.993 14.011C147.79 13.7679 147.675 13.6399 147.669 13.6463C147.663 13.6527 147.758 13.7935 147.942 14.0494C148.126 14.3117 148.425 14.6764 148.768 15.1754C149.474 16.167 150.44 17.6385 151.476 19.5514C152.505 21.4644 153.598 23.8187 154.59 26.5186C155.594 29.212 156.515 32.2445 157.373 35.4626C158.231 38.6678 158.937 41.7835 160.049 44.4642C160.595 45.8077 161.237 47.0361 161.956 48.1109C162.686 49.1793 163.487 50.0814 164.301 50.8171C165.94 52.2886 167.605 53.0243 168.787 53.3186C169.976 53.6129 170.656 53.5681 170.656 53.5681C170.656 53.5297 169.982 53.5233 168.819 53.1971C167.663 52.8708 166.042 52.1158 164.453 50.6444C163.665 49.9086 162.883 49.0129 162.178 47.9573C161.485 46.8953 160.862 45.6797 160.322 44.349" fill="#263238"/>
<path d="M80.5 176.846C80.5 176.846 93.8906 134.096 97.0491 127.782C101.879 118.128 106.862 114.5 111.94 112.178C115.823 110.399 114.838 186.244 114.838 186.244C114.838 186.244 85.5334 184.625 80.5064 176.839L80.5 176.846Z" fill="#FFD344"/>
<path d="M199.96 106.087L179.75 102.248C179.75 102.248 177.52 116.106 159.947 114.615C142.375 113.125 142.445 103.432 142.445 103.432L111.514 112.338L112.086 126.349L114.463 186.225C114.463 186.225 118.206 213.089 117.691 216.301C117.176 219.512 117.691 265.351 117.691 265.351H215.41L213.7 197.837L215.41 186.98L242.845 175.662C243.748 174.178 235.759 146.201 226.665 126.816C221.593 115.997 211.628 108.313 199.947 106.093L199.96 106.087Z" fill="#FFD344"/>
<path d="M238.498 177.377C238.498 177.377 243.913 212.251 243.475 217.951C243.036 223.652 237.787 233.28 226.69 235.315C215.594 237.355 189.531 229.454 189.531 229.454L187.478 212.724L192.257 212.283C192.257 212.283 206.271 212.315 208.749 211.816C211.228 211.317 216.528 209.007 216.528 209.007L215.727 186.775L238.498 177.37V177.377Z" fill="#FFBF9D"/>
<path d="M216.528 209.346C216.528 209.346 216.706 209.078 217.157 208.726C217.596 208.361 218.333 207.964 219.299 207.644C221.225 207.03 224.135 206.806 227.11 207.753C228.597 208.239 229.868 209.116 230.796 210.095C231.736 211.074 232.366 212.142 232.76 213.083C233.147 214.029 233.319 214.842 233.376 215.411C233.44 215.974 233.414 216.294 233.395 216.294C233.3 216.313 233.3 215.027 232.474 213.217C232.054 212.321 231.425 211.317 230.51 210.395C229.601 209.474 228.393 208.655 226.976 208.195C224.116 207.286 221.276 207.44 219.394 207.964C217.469 208.476 216.592 209.429 216.535 209.353L216.528 209.346Z" fill="#FF9A6C"/>
<path d="M87.6941 181.375C87.6941 181.375 84.2496 215.917 84.7326 221.611C85.2219 227.305 90.2045 238.833 101.313 240.759C112.423 242.685 138.416 234.521 138.416 234.521L139.312 212.059C139.312 212.059 133.935 210.639 130.452 214.42C126.69 218.508 120.506 217.356 119.045 217.081C116.56 216.608 112.2 215.111 112.2 215.111L114.469 186.231L87.6941 181.382V181.375Z" fill="#FFBF9D"/>
<path d="M112.2 215.104C112.149 215.175 111.209 214.221 109.194 213.678C107.23 213.127 104.288 212.782 101.244 213.518C99.7374 213.895 98.4536 214.74 97.4876 215.674C96.5089 216.614 95.8416 217.663 95.4031 218.597C94.526 220.478 94.5515 221.828 94.4498 221.809C94.4244 221.809 94.3989 221.483 94.4625 220.888C94.526 220.299 94.6849 219.442 95.1107 218.463C95.5302 217.484 96.1911 216.371 97.1953 215.373C98.193 214.381 99.534 213.479 101.129 213.083C104.3 212.315 107.287 212.731 109.289 213.37C110.293 213.703 111.062 214.1 111.533 214.471C111.781 214.631 111.933 214.81 112.048 214.919C112.156 215.027 112.206 215.091 112.2 215.104Z" fill="#FF9A6C"/>
<path d="M136.871 213.607L139.312 212.053L148.927 216.435C148.927 216.435 156.464 215.949 157.92 217.798C159.375 219.653 163.284 222.602 161.186 229.832C159.083 237.061 151.647 240.119 151.647 240.119L139.947 235.123L135.295 227.849L136.369 219.749L136.878 213.601L136.871 213.607Z" fill="#FFBF9D"/>
<path d="M195.066 213.108L193.808 212.679C190.605 211.592 187.084 212.078 184.294 213.997L181.434 215.962C181.434 215.962 173.897 215.475 172.442 217.324C170.986 219.18 167.078 222.129 169.175 229.358C171.279 236.588 178.714 239.646 178.714 239.646L190.414 234.649L195.066 227.375L199.572 213.94L195.066 213.108Z" fill="#FFBF9D"/>
<path d="M190.306 216.627C189.048 213.882 186.226 212.193 183.385 211.214C180.545 210.236 177.526 209.801 174.742 208.655C170.3 206.832 166.264 203.204 161.485 203.55C158.657 203.755 156.147 205.354 153.77 206.902C150.56 208.994 147.351 211.086 144.142 213.178C142.743 214.087 141.333 215.008 140.189 216.224C139.045 217.439 138.168 218.988 138.085 220.657L188.997 222.186C190.923 221.316 191.202 218.553 190.313 216.627H190.306Z" fill="#AA6755"/>
<path d="M140.703 224.042C139.909 223.223 139.095 222.372 138.676 221.297C138.257 220.222 138.339 218.86 139.172 218.079C139.979 217.324 141.193 217.331 142.248 217.024C144.364 216.416 145.838 214.528 147.465 213.019C149.092 211.502 151.425 210.248 153.414 211.195C155.003 208.886 157.488 207.241 160.195 206.704C162.902 206.167 165.8 206.742 168.12 208.271C169.556 209.218 170.878 210.562 172.575 210.741C173.706 210.863 174.85 210.434 175.981 210.562C177.825 210.773 179.204 212.379 180.92 213.102C183.144 214.042 185.908 213.486 187.834 214.963C189.226 216.032 189.791 217.945 189.728 219.723C189.563 224.208 185.889 227.925 181.758 229.397C177.627 230.868 173.109 230.542 168.762 230.043C159.445 228.974 150.16 227.177 141.326 223.952" fill="#AA6755"/>
<path d="M189.995 221.393C189.887 219.16 188.158 217.1 185.991 216.62C184.981 216.397 183.932 216.486 182.902 216.365C180.907 216.141 178.822 215.155 176.979 215.968C175.924 216.429 175.168 217.414 174.138 217.913C172.956 218.489 171.571 218.367 170.255 218.354C168.94 218.341 167.491 218.508 166.582 219.467C165.794 220.306 165.324 221.751 164.18 221.745C162.909 221.739 162.483 219.922 161.345 219.359C160.424 218.904 159.28 219.391 158.301 219.09C157.405 218.809 156.833 217.938 156.039 217.439C154.933 216.742 153.535 216.825 152.238 216.934C150.757 217.056 149.283 217.177 147.802 217.299C144.478 217.574 140.831 217.99 138.53 220.427C138.53 220.427 152.829 231.207 165.133 229.589C177.437 227.97 190.008 221.387 190.008 221.387L189.995 221.393Z" fill="#99584B"/>
<path d="M127.993 217.305C127.993 217.305 129.938 215.296 131.145 214.413C136.217 220.082 141.625 222.73 141.625 222.73C142.241 221.412 144.326 218.444 146.741 218.904C149.156 219.365 148.914 221.476 148.914 221.476C149.423 220.165 150.796 217.996 153.096 218.457C155.397 218.924 155.797 221.809 155.797 221.809C156.426 220.728 158.079 220.184 158.079 220.184C161.383 220.248 161.218 223.875 161.218 223.875C161.237 223.869 161.256 223.856 161.275 223.85C162.82 223.172 164.548 224.336 164.606 226.057C164.682 228.392 164.758 232.365 164.44 233.747C163.983 235.756 160.297 235.481 160.297 235.481C160.297 235.481 159.261 239.972 158.988 241.386C158.714 242.8 157.106 242.531 155.181 242.691C153.255 242.845 150.948 241.488 150.948 241.488C150.948 241.488 148.171 243.696 145.057 242.922C141.943 242.147 140.551 239.185 140.551 239.185C140.551 239.185 136.878 238.558 134.628 236.805C132.378 235.052 130.916 230.695 130.916 230.695C128.4 230.478 126.919 228.098 126.919 228.098L127.987 217.305H127.993Z" fill="#FFBF9D"/>
<path d="M136.871 238.226C136.871 238.226 136.63 238.168 136.204 238.002C135.784 237.816 135.193 237.483 134.552 236.92C133.255 235.814 131.838 233.773 130.986 231.06L131.196 231.214C130.287 231.278 129.334 230.958 128.552 230.395C128.152 230.12 127.79 229.787 127.459 229.422C127.135 229.064 126.792 228.661 126.601 228.149C126.391 227.631 126.328 227.055 126.417 226.511C126.506 226.012 126.595 225.52 126.677 225.033C126.849 224.067 127.021 223.14 127.179 222.25C127.504 220.498 127.802 218.898 128.056 217.529C128.285 216.787 128.705 216.339 129.022 215.891C129.359 215.462 129.664 215.104 129.919 214.816C130.427 214.247 130.732 213.953 130.757 213.978C130.783 213.997 130.522 214.33 130.052 214.931C129.823 215.232 129.537 215.603 129.226 216.038C128.933 216.473 128.527 217.004 128.374 217.574C128.145 218.949 127.885 220.549 127.592 222.302C127.44 223.197 127.281 224.131 127.116 225.104C127.033 225.59 126.951 226.076 126.862 226.575C126.792 227.036 126.843 227.529 127.021 227.97C127.853 229.582 129.556 230.881 131.177 230.779L131.342 230.766L131.393 230.932C132.181 233.562 133.516 235.596 134.723 236.709C135.924 237.861 136.916 238.123 136.871 238.206V238.226Z" fill="#FF9A6C"/>
<path d="M130.319 220.83C130.319 220.83 130.618 220.83 131.139 220.92C131.66 221.016 132.41 221.182 133.306 221.515C134.196 221.854 135.244 222.366 136.178 223.261C137.1 224.144 137.913 225.417 138.072 226.94C138.257 228.469 137.538 229.934 136.522 230.747C136.013 231.169 135.416 231.425 134.831 231.495C134.24 231.572 133.7 231.45 133.242 231.316C132.334 231.028 131.634 230.759 131.12 230.734C130.611 230.689 130.325 230.791 130.319 230.747C130.306 230.734 130.579 230.561 131.126 230.555C131.679 230.529 132.435 230.766 133.325 231.003C133.77 231.111 134.272 231.201 134.78 231.118C135.289 231.041 135.81 230.798 136.261 230.414C137.164 229.659 137.799 228.354 137.627 226.978C137.481 225.603 136.744 224.4 135.892 223.556C135.028 222.705 134.037 222.174 133.191 221.809C131.469 221.105 130.3 220.907 130.325 220.824L130.319 220.83Z" fill="#FF9A6C"/>
<path d="M137.952 220.785C138.085 220.837 137.824 221.572 137.36 222.346C136.903 223.127 136.515 223.741 136.394 223.69C136.28 223.639 136.503 222.916 136.966 222.123C137.437 221.336 137.843 220.753 137.952 220.792V220.785Z" fill="#FF9A6C"/>
<path d="M148.914 221.476C148.914 221.476 148.927 221.758 148.87 222.257C148.813 222.756 148.686 223.472 148.482 224.349C148.082 226.102 147.313 228.475 146.144 230.958C144.968 233.44 143.633 235.545 142.546 236.972C142.006 237.688 141.542 238.245 141.199 238.609C140.856 238.974 140.659 239.166 140.633 239.147C140.576 239.096 141.282 238.251 142.286 236.786C143.296 235.327 144.574 233.223 145.73 230.766C146.887 228.309 147.694 225.987 148.164 224.272C148.647 222.558 148.838 221.47 148.908 221.483L148.914 221.476Z" fill="#FF9A6C"/>
<path d="M155.791 221.815C155.791 221.815 155.823 222.103 155.797 222.622C155.778 223.14 155.715 223.882 155.613 224.803C155.416 226.639 155.028 229.166 154.367 231.911C153.706 234.656 152.886 237.08 152.2 238.795C151.857 239.652 151.558 240.337 151.336 240.797C151.113 241.265 150.974 241.514 150.948 241.501C150.885 241.476 151.304 240.414 151.908 238.68C152.512 236.946 153.274 234.528 153.935 231.802C154.59 229.077 155.022 226.575 155.301 224.765C155.581 222.948 155.727 221.815 155.791 221.822V221.815Z" fill="#FF9A6C"/>
<path d="M161.212 223.882C161.269 223.882 161.352 224.579 161.371 225.712C161.39 226.844 161.333 228.411 161.161 230.126C160.989 231.847 160.742 233.389 160.513 234.496C160.29 235.603 160.1 236.281 160.036 236.268C159.903 236.242 160.367 233.491 160.71 230.081C161.066 226.671 161.085 223.888 161.212 223.882Z" fill="#FF9A6C"/>
<path d="M136.573 231.457C136.522 231.418 136.82 230.939 137.284 230.158C137.863 229.192 138.454 228.194 139.108 227.1C139.814 225.904 140.443 224.81 140.888 224.016C141.339 223.223 141.561 222.718 141.625 222.73C141.682 222.75 141.555 223.319 141.174 224.157C140.799 225.001 140.208 226.121 139.496 227.33C138.085 229.742 136.687 231.553 136.566 231.457H136.573Z" fill="#FF9A6C"/>
<path d="M148.546 223.69C148.482 223.677 148.705 222.903 148.781 221.649C148.787 221.336 148.781 220.99 148.692 220.651C148.603 220.312 148.406 219.979 148.133 219.698C147.586 219.116 146.671 218.809 145.775 219.045C144.879 219.263 144.11 219.813 143.519 220.363C142.94 220.945 142.527 221.585 142.191 222.116C141.53 223.197 141.174 223.907 141.123 223.882C141.104 223.869 141.167 223.684 141.307 223.357C141.453 223.031 141.669 222.558 141.981 222.001C142.299 221.444 142.693 220.779 143.29 220.152C143.906 219.557 144.694 218.975 145.692 218.725C146.188 218.604 146.703 218.617 147.173 218.757C147.637 218.898 148.044 219.167 148.342 219.493C148.647 219.819 148.857 220.203 148.953 220.593C149.041 220.984 149.029 221.348 149.01 221.675C148.953 222.327 148.819 222.826 148.73 223.178C148.635 223.524 148.565 223.709 148.539 223.703L148.546 223.69Z" fill="#FF9A6C"/>
<path d="M149.118 221.681C149.118 221.681 149.08 221.521 149.118 221.246C149.156 220.965 149.264 220.561 149.512 220.12C149.76 219.679 150.166 219.199 150.751 218.847C151.329 218.489 152.092 218.309 152.874 218.386C153.655 218.469 154.367 218.796 154.863 219.263C155.365 219.723 155.664 220.28 155.829 220.76C155.988 221.246 156.013 221.662 155.994 221.943C155.975 222.225 155.924 222.372 155.905 222.372C155.842 222.372 155.956 221.739 155.607 220.843C155.429 220.402 155.13 219.903 154.66 219.499C154.196 219.09 153.547 218.802 152.836 218.725C152.124 218.655 151.431 218.809 150.897 219.122C150.357 219.429 149.969 219.858 149.709 220.254C149.194 221.067 149.181 221.707 149.118 221.694V221.681Z" fill="#FF9A6C"/>
<path d="M155.854 222.078C155.854 222.078 155.785 221.54 156.337 220.945C156.611 220.664 157.017 220.389 157.532 220.28C158.053 220.171 158.651 220.254 159.191 220.517C160.297 221.048 160.837 222.097 161.053 222.813C161.269 223.549 161.256 224.029 161.218 224.029C161.167 224.035 161.098 223.575 160.831 222.89C160.57 222.218 160.043 221.291 159.051 220.817C158.568 220.587 158.041 220.504 157.596 220.587C157.145 220.664 156.763 220.881 156.503 221.118C155.969 221.604 155.912 222.103 155.854 222.084V222.078Z" fill="#FF9A6C"/>
<path d="M202.369 216.832C202.369 216.832 200.424 214.823 199.216 213.94C194.145 219.608 188.737 222.257 188.737 222.257C188.12 220.939 186.036 217.97 183.621 218.431C181.206 218.892 181.447 221.003 181.447 221.003C180.939 219.691 179.566 217.523 177.265 217.983C174.965 218.45 174.564 221.336 174.564 221.336C173.935 220.254 172.283 219.711 172.283 219.711C168.978 219.775 169.143 223.402 169.143 223.402C169.124 223.396 169.105 223.383 169.086 223.376C167.542 222.698 165.813 223.863 165.756 225.584C165.68 227.919 165.603 231.892 165.921 233.274C166.379 235.283 170.065 235.008 170.065 235.008C170.065 235.008 171.101 239.499 171.374 240.913C171.647 242.327 173.255 242.058 175.181 242.218C177.106 242.371 179.413 241.015 179.413 241.015C179.413 241.015 182.191 243.222 185.305 242.448C188.419 241.674 189.811 238.712 189.811 238.712C189.811 238.712 193.484 238.085 195.734 236.332C197.984 234.579 199.445 230.222 199.445 230.222C201.962 230.005 203.443 227.625 203.443 227.625L202.375 216.832H202.369Z" fill="#FFBF9D"/>
<path d="M193.49 237.752C193.49 237.752 193.732 237.695 194.158 237.528C194.577 237.343 195.168 237.01 195.81 236.447C197.106 235.34 198.524 233.299 199.375 230.587L199.166 230.74C200.074 230.804 201.028 230.484 201.809 229.921C202.21 229.646 202.572 229.314 202.902 228.949C203.227 228.591 203.57 228.188 203.76 227.676C203.97 227.151 204.034 226.582 203.945 226.038C203.856 225.539 203.767 225.046 203.684 224.56C203.513 223.594 203.341 222.666 203.182 221.777C202.858 220.024 202.559 218.425 202.305 217.056C202.076 216.313 201.657 215.866 201.339 215.418C201.002 214.989 200.697 214.631 200.443 214.343C199.935 213.773 199.63 213.479 199.604 213.505C199.579 213.524 199.839 213.857 200.31 214.458C200.538 214.759 200.824 215.13 201.136 215.571C201.428 216.006 201.835 216.537 201.987 217.107C202.216 218.482 202.477 220.082 202.769 221.835C202.922 222.73 203.08 223.664 203.246 224.637C203.328 225.123 203.411 225.609 203.5 226.108C203.57 226.569 203.519 227.062 203.341 227.503C202.508 229.115 200.805 230.414 199.185 230.312L199.019 230.299L198.969 230.465C198.181 233.095 196.846 235.129 195.638 236.242C194.437 237.394 193.446 237.656 193.49 237.739V237.752Z" fill="#FF9A6C"/>
<path d="M200.043 220.357C200.043 220.357 199.744 220.357 199.223 220.446C198.702 220.542 197.952 220.709 197.056 221.041C196.166 221.38 195.117 221.892 194.183 222.788C193.262 223.671 192.448 224.944 192.289 226.467C192.105 227.996 192.823 229.461 193.84 230.273C194.348 230.695 194.946 230.951 195.53 231.022C196.121 231.099 196.662 230.977 197.119 230.843C198.028 230.555 198.727 230.286 199.242 230.26C199.75 230.216 200.036 230.318 200.043 230.273C200.055 230.26 199.782 230.088 199.235 230.081C198.683 230.056 197.926 230.292 197.037 230.529C196.592 230.638 196.09 230.727 195.581 230.644C195.073 230.568 194.552 230.324 194.1 229.941C193.198 229.186 192.562 227.88 192.734 226.505C192.88 225.129 193.617 223.927 194.469 223.082C195.333 222.231 196.325 221.7 197.17 221.336C198.892 220.632 200.062 220.434 200.036 220.35L200.043 220.357Z" fill="#FF9A6C"/>
<path d="M192.41 220.312C192.276 220.363 192.537 221.099 193.001 221.873C193.459 222.654 193.846 223.268 193.967 223.217C194.081 223.165 193.859 222.442 193.395 221.649C192.925 220.862 192.518 220.28 192.41 220.318V220.312Z" fill="#FF9A6C"/>
<path d="M181.447 221.003C181.447 221.003 181.434 221.284 181.492 221.783C181.549 222.282 181.676 222.999 181.879 223.876C182.28 225.628 183.049 228.002 184.218 230.484C185.394 232.967 186.728 235.072 187.815 236.498C188.355 237.215 188.819 237.771 189.162 238.136C189.506 238.501 189.703 238.693 189.728 238.673C189.785 238.622 189.08 237.778 188.076 236.313C187.065 234.854 185.788 232.749 184.631 230.292C183.474 227.836 182.667 225.513 182.197 223.799C181.714 222.084 181.523 220.997 181.453 221.009L181.447 221.003Z" fill="#FF9A6C"/>
<path d="M174.571 221.336C174.571 221.336 174.539 221.624 174.564 222.142C174.583 222.66 174.647 223.402 174.749 224.323C174.946 226.159 175.333 228.687 175.994 231.431C176.655 234.176 177.475 236.601 178.161 238.315C178.505 239.172 178.803 239.857 179.026 240.318C179.248 240.785 179.388 241.034 179.413 241.021C179.477 240.996 179.057 239.934 178.454 238.2C177.85 236.466 177.087 234.048 176.426 231.322C175.772 228.597 175.34 226.096 175.06 224.285C174.78 222.468 174.634 221.336 174.571 221.342V221.336Z" fill="#FF9A6C"/>
<path d="M169.15 223.402C169.092 223.402 169.01 224.099 168.991 225.232C168.972 226.364 169.029 227.932 169.201 229.646C169.372 231.367 169.62 232.909 169.849 234.016C170.071 235.123 170.262 235.801 170.325 235.788C170.459 235.762 169.995 233.011 169.652 229.601C169.296 226.191 169.277 223.408 169.15 223.402Z" fill="#FF9A6C"/>
<path d="M193.789 230.983C193.84 230.945 193.541 230.465 193.077 229.685C192.499 228.719 191.908 227.721 191.253 226.627C190.548 225.43 189.919 224.336 189.474 223.543C189.023 222.75 188.8 222.244 188.737 222.257C188.679 222.276 188.806 222.845 189.188 223.684C189.563 224.528 190.154 225.648 190.866 226.857C192.276 229.269 193.675 231.079 193.795 230.983H193.789Z" fill="#FF9A6C"/>
<path d="M181.816 223.217C181.816 223.217 181.727 223.037 181.625 222.692C181.53 222.346 181.403 221.841 181.345 221.188C181.32 220.862 181.314 220.498 181.403 220.107C181.492 219.711 181.708 219.333 182.013 219.007C182.318 218.681 182.718 218.412 183.182 218.271C183.652 218.13 184.167 218.124 184.663 218.239C185.661 218.489 186.442 219.071 187.065 219.666C187.663 220.299 188.063 220.958 188.374 221.515C188.686 222.078 188.908 222.545 189.048 222.871C189.188 223.197 189.258 223.389 189.232 223.396C189.188 223.421 188.832 222.711 188.165 221.63C187.828 221.099 187.415 220.459 186.836 219.877C186.245 219.327 185.476 218.777 184.58 218.559C183.678 218.329 182.763 218.629 182.222 219.212C181.949 219.493 181.746 219.832 181.663 220.165C181.574 220.504 181.568 220.849 181.574 221.163C181.657 222.417 181.873 223.191 181.809 223.204L181.816 223.217Z" fill="#FF9A6C"/>
<path d="M181.244 221.208C181.18 221.22 181.168 220.581 180.653 219.768C180.392 219.372 180.005 218.943 179.464 218.636C178.93 218.329 178.238 218.175 177.526 218.239C176.814 218.316 176.166 218.604 175.702 219.013C175.232 219.423 174.933 219.922 174.755 220.357C174.406 221.259 174.52 221.886 174.456 221.886C174.437 221.886 174.386 221.739 174.367 221.457C174.348 221.176 174.374 220.76 174.533 220.274C174.692 219.794 174.99 219.237 175.499 218.777C175.994 218.309 176.712 217.983 177.488 217.9C178.27 217.823 179.032 218.002 179.61 218.361C180.195 218.713 180.596 219.199 180.85 219.634C181.098 220.082 181.206 220.485 181.244 220.76C181.282 221.041 181.263 221.195 181.244 221.195V221.208Z" fill="#FF9A6C"/>
<path d="M174.507 221.604C174.45 221.624 174.399 221.124 173.859 220.638C173.598 220.402 173.217 220.184 172.766 220.107C172.315 220.024 171.794 220.107 171.311 220.338C170.319 220.811 169.792 221.739 169.531 222.41C169.27 223.095 169.201 223.556 169.143 223.549C169.105 223.549 169.093 223.069 169.309 222.334C169.518 221.617 170.059 220.568 171.171 220.037C171.711 219.775 172.308 219.691 172.829 219.8C173.351 219.909 173.757 220.178 174.024 220.466C174.577 221.061 174.539 221.611 174.507 221.598V221.604Z" fill="#FF9A6C"/>
<path d="M164.764 178.49C162.267 180.576 160.284 183.429 159.788 186.654C159.293 189.878 161.136 194.158 163.824 195.981C168.018 195.553 171.666 190.793 173.052 186.801C174.164 183.589 173.922 179.885 173.56 176.372C173.427 175.074 172.073 174.3 170.885 174.831C168.698 175.803 166.595 176.961 164.764 178.49Z" fill="#455A64"/>
<path d="M163.538 208.054C163.538 208.054 163.449 207.734 163.354 207.139C163.252 206.544 163.15 205.68 163.068 204.612C162.896 202.469 162.89 199.481 163.341 196.225C163.805 192.968 164.631 190.096 165.387 188.087C165.762 187.082 166.099 186.276 166.36 185.739C166.614 185.195 166.766 184.901 166.785 184.913C166.805 184.92 166.696 185.233 166.474 185.79C166.252 186.346 165.947 187.159 165.603 188.163C164.911 190.185 164.123 193.038 163.665 196.269C163.214 199.5 163.188 202.462 163.296 204.593C163.347 205.661 163.417 206.525 163.481 207.12C163.538 207.715 163.557 208.048 163.538 208.054Z" fill="#263238"/>
<path d="M161.39 195.303C160.875 194.107 159.833 193.179 158.644 192.661C157.456 192.143 156.128 192.002 154.831 192.085C153.535 192.168 152.264 192.456 151.005 192.77C151.266 194.177 151.546 195.636 152.372 196.8C152.95 197.619 153.77 198.24 154.641 198.732C155.588 199.27 156.617 199.679 157.697 199.794C158.778 199.91 160.138 199.622 161.053 199.027C161.822 197.978 161.905 196.5 161.39 195.303Z" fill="#455A64"/>
<path d="M155.797 195.105C155.797 195.105 156.388 195.271 157.253 195.738C158.117 196.205 159.28 196.941 160.354 198.016C161.434 199.084 162.172 200.262 162.616 201.138C163.061 202.021 163.271 202.59 163.233 202.609C163.188 202.629 162.902 202.091 162.413 201.253C161.917 200.415 161.174 199.289 160.119 198.253C159.077 197.203 157.958 196.455 157.132 195.943C156.306 195.425 155.765 195.156 155.791 195.105H155.797Z" fill="#263238"/>
<path d="M154.552 210.818C154.253 211.368 154.685 212.161 155.308 212.2C155.924 212.244 156.465 211.515 156.242 210.933C156.026 210.351 155.149 210.159 154.711 210.607" fill="#99584B"/>
<path d="M114.946 140.417C114.946 140.417 114.933 140.596 114.876 140.929C114.812 141.294 114.723 141.774 114.615 142.381C114.367 143.635 114.069 145.465 113.738 147.73C113.09 152.253 112.499 158.568 112.683 165.541C112.778 169.028 113.045 172.342 113.382 175.349C113.744 178.349 114.158 181.043 114.571 183.295C114.755 184.421 114.984 185.432 115.155 186.327C115.327 187.223 115.492 187.984 115.632 188.611C115.759 189.213 115.861 189.692 115.937 190.051C116.001 190.383 116.032 190.556 116.02 190.556C116.007 190.556 115.956 190.39 115.873 190.064C115.785 189.705 115.664 189.232 115.511 188.637C115.352 188.016 115.168 187.255 114.977 186.366C114.787 185.476 114.545 184.466 114.348 183.34C113.903 181.094 113.458 178.394 113.084 175.387C112.728 172.374 112.454 169.053 112.353 165.554C112.168 158.555 112.798 152.221 113.503 147.698C113.865 145.433 114.202 143.61 114.488 142.362C114.622 141.761 114.73 141.281 114.812 140.923C114.888 140.596 114.933 140.424 114.946 140.424V140.417Z" fill="#263238"/>
<path d="M211.094 137.954C211.094 137.954 211.171 138.127 211.279 138.466C211.393 138.831 211.552 139.323 211.743 139.944C211.946 140.584 212.181 141.377 212.423 142.305C212.671 143.226 212.969 144.275 213.23 145.452C213.37 146.041 213.516 146.655 213.662 147.295C213.795 147.941 213.935 148.613 214.075 149.304C214.38 150.686 214.609 152.189 214.889 153.756C215.378 156.904 215.797 160.391 216.058 164.063C216.306 167.735 216.344 171.248 216.287 174.434C216.229 176.027 216.191 177.543 216.077 178.957C216.001 180.371 215.867 181.689 215.746 182.885C215.645 184.088 215.48 185.163 215.359 186.116C215.244 187.069 215.111 187.882 214.997 188.547C214.882 189.187 214.793 189.699 214.73 190.076C214.666 190.428 214.628 190.607 214.615 190.607C214.603 190.607 214.615 190.422 214.666 190.07C214.717 189.686 214.787 189.174 214.869 188.534C214.965 187.869 215.079 187.05 215.181 186.103C215.283 185.15 215.429 184.075 215.518 182.872C215.626 181.676 215.74 180.365 215.804 178.951C215.905 177.537 215.931 176.027 215.982 174.44C216.026 171.261 215.982 167.761 215.727 164.102C215.467 160.442 215.06 156.968 214.59 153.82C214.323 152.253 214.1 150.756 213.808 149.374C213.675 148.683 213.541 148.011 213.414 147.365C213.268 146.725 213.134 146.111 213.001 145.523C212.753 144.345 212.474 143.296 212.238 142.369C212.016 141.441 211.8 140.648 211.609 140.001C211.438 139.374 211.304 138.875 211.202 138.504C211.114 138.159 211.069 137.98 211.082 137.973L211.094 137.954Z" fill="#263238"/>
<path d="M188.171 24.081C187.72 24.2346 187.021 23.3453 185.985 22.0338C185.483 21.362 184.834 20.6135 184.148 19.7754C183.43 18.9565 182.623 18.08 181.733 17.1907C178.174 13.6335 174.596 11.3112 174.99 10.4347C175.181 10.0316 176.363 10.1084 178.085 10.7866C179.795 11.4711 182.025 12.8018 184.053 14.8171C185.063 15.828 185.915 16.9028 186.595 17.9456C187.249 19.0076 187.758 20.0121 188.05 20.9206C188.66 22.7247 188.59 23.9467 188.171 24.081Z" fill="#FF725E"/>
<path d="M165.877 208.643C165.839 208.738 164.663 208.175 163.106 208.182C161.549 208.163 160.367 208.713 160.329 208.617C160.278 208.553 161.46 207.836 163.106 207.849C164.752 207.849 165.934 208.579 165.877 208.643Z" fill="#99584B"/>
<path d="M226.582 129.976C226.582 130.066 197.558 130.142 161.765 130.142C125.972 130.142 96.941 130.066 96.941 129.976C96.941 129.887 125.959 129.81 161.765 129.81C197.57 129.81 226.582 129.887 226.582 129.976Z" fill="white"/>
<path d="M231.018 135.613C231.018 135.613 230.898 135.625 230.669 135.632C230.421 135.632 230.078 135.645 229.633 135.651C228.711 135.657 227.37 135.67 225.654 135.689C222.184 135.715 217.189 135.76 211.018 135.811C198.651 135.958 181.581 136.156 162.731 136.38C143.868 136.623 126.792 136.803 114.431 136.854C108.254 136.879 103.252 136.886 99.7946 136.866C98.0787 136.854 96.7377 136.847 95.8162 136.841C95.3714 136.834 95.0282 136.828 94.7803 136.828C94.5452 136.828 94.4308 136.809 94.4308 136.809C94.4308 136.809 94.5515 136.796 94.7803 136.79C95.0282 136.79 95.3714 136.777 95.8162 136.771C96.7377 136.764 98.0787 136.751 99.7946 136.732C103.265 136.707 108.26 136.662 114.431 136.611C126.798 136.463 143.868 136.265 162.725 136.041C181.581 135.798 198.657 135.619 211.012 135.568C217.189 135.542 222.191 135.536 225.648 135.555C227.364 135.568 228.705 135.574 229.626 135.581C230.071 135.581 230.415 135.593 230.662 135.593C230.898 135.593 231.012 135.613 231.012 135.613H231.018Z" fill="white"/>
<path d="M180.303 97.4565C179.979 115.217 180.716 132.989 182.502 150.66C182.75 153.142 183.055 155.721 184.39 157.819C187.408 162.585 194.075 162.912 199.68 162.713C202.356 162.617 207.86 163.04 209.353 160.807C210.338 159.335 208.965 155.913 209.353 154.185C213.529 135.574 211.088 117.008 206.423 100.048" fill="#263238"/>
</g>
<defs>
<clipPath id="clip0_68_4107">
<rect width="163" height="265" fill="white" transform="translate(80.5)"/>
</clipPath>
</defs>
</svg>
