<svg width="378" height="330" viewBox="0 0 378 330" fill="none" xmlns="http://www.w3.org/2000/svg">
<path d="M107.492 264.528C86.2383 252.45 67.8938 263.405 60.6393 271.53C59.4726 272.196 55.2393 272.93 47.6393 270.53C40.0393 268.13 39.4726 249.196 40.1393 240.03L41.6392 223.53L41.6392 210.03C40.9726 207.363 40.0392 200.93 41.6392 196.53C43.2392 192.13 48.3059 189.03 50.6392 188.03L60.6393 185.03C65.4726 184.03 75.4392 181.53 76.6392 179.53C77.8392 177.53 83.8059 177.363 86.6392 177.53L100.139 172.53L106.139 170.03C106.639 168.196 106.739 164.43 103.139 164.03L88.1392 161.53C85.9726 161.863 80.3392 161.53 75.1392 157.53C73.6392 158.363 67.8392 158.63 56.6392 153.03C45.4392 147.43 47.3059 140.696 49.6392 138.03C50.6392 136.696 52.4392 133.23 51.6392 130.03C50.8392 126.83 48.6392 122.696 47.6392 121.03C46.9726 118.696 46.0392 113.33 47.6392 110.53C49.6392 107.03 54.1392 107.03 56.6392 105.03C58.6392 103.43 58.8059 100.696 58.6392 99.5296L61.1392 94.0296L63.6392 89.5296L67.1392 85.5296L70.6392 84.0296L76.1392 82.5296L81.6392 82.5296L88.1392 85.5296C88.9726 86.0296 90.8392 86.7296 91.6392 85.5296C92.4392 84.3296 94.6392 82.0296 95.6392 81.0296L98.6392 78.5296L100.139 77.5296L103.139 76.5296L105.139 76.5296L107.639 76.5296L111.639 76.5296L115.139 77.5296L118.139 78.5296L119.639 78.5296L122.139 80.0296L124.139 81.0296L127.139 81.0296L132.639 81.0296L138.639 78.5296L142.639 76.5296L145.639 76.5296L146.639 76.5296L150.139 76.5296L153.139 76.5296L161.433 74.5296L168.433 74.5296L173.433 74.5296L180.433 76.5296L185.433 76.5296L188.433 76.5296L194.433 78.5296L201.433 80.0296L204.433 80.0296L210.433 81.0296L242.433 81.0296L247.433 78.5296L251.933 77.5296L260.933 77.5296L267.933 77.5296L286.933 77.5296L295.433 76.5296L306.933 76.5296L326.933 78.5296L326.933 81.0296L332.933 82.5296L340.933 94.0296L340.933 99.5296L340.933 105.03L340.933 110.53L340.933 121.03L332.933 130.03L326.933 138.03L326.933 145.03L318.933 145.03L306.933 153.03L306.933 157.53L306.933 164.03L318.933 172.53L332.933 177.53L332.933 179.53L340.933 196.53L337.433 200.03L332.933 210.03L326.933 223.53L318.933 229.03L318.933 235.53L306.933 240.03L306.933 245.03L295.433 245.03L286.933 245.03L279.433 251.53L267.933 251.53L260.933 257.03L251.933 257.03L236.933 264.53L215.433 264.53L210.433 264.53L201.433 268.53L192.139 268.53L184.139 271.53L173.139 273.03L164.639 270.53L155.639 265.03C154.473 264.696 150.639 264.13 144.639 264.53C137.139 265.03 135.139 267.03 128.639 270.53C121.664 274.285 114.379 268.442 107.492 264.528Z" fill="#EBFFDD"/>
<path d="M155.94 107.131C154.057 110.006 153.927 113.751 154.451 117.189C154.976 120.626 156.079 123.968 156.421 127.428C157.135 134.59 154.577 141.584 153.109 148.603C151.641 155.628 151.513 163.752 156.157 169.167C159.126 169.102 162.146 169.025 164.962 168.065C167.779 167.106 170.402 165.108 171.416 162.248C172.253 159.888 171.914 157.274 171.565 154.778C169.859 142.611 168.154 130.444 166.455 118.282" fill="#263238"/>
<path d="M223.067 54.8917C220.926 59.5955 224.616 65.0111 228.752 68.0412C232.888 71.0713 237.934 73.3516 240.359 77.9354C244.402 85.5891 239.199 95.9443 243.592 103.389C245.98 107.438 250.898 109.93 251.889 114.543C252.405 116.945 251.707 119.423 251.795 121.878C252.006 127.715 256.462 132.325 260.112 136.832C263.762 141.339 266.943 147.614 264.334 152.78C250.262 154.125 236.191 155.47 222.119 156.814C221.075 156.912 219.977 157.004 219.017 156.564C216.968 155.62 216.558 152.868 216.436 150.57C215.391 130.968 214.345 111.366 213.301 91.7702" fill="#263238"/>
<path d="M153.91 110.797C154.324 107.379 155.777 104.158 156.064 100.725C156.424 96.375 154.892 92.1168 153.793 87.8851C152.694 83.6534 152.066 78.9405 154.068 75.094C155.26 72.8069 157.293 71.0481 158.332 68.6816C159.679 65.621 159.171 62.0771 159.427 58.7275C159.98 51.5327 164.437 44.8082 170.743 41.6711L181.582 129.105C176.592 131.497 171.595 133.884 166.605 136.277C163.263 132.72 159.885 129.118 157.385 124.893C154.891 120.667 153.307 115.692 153.904 110.804L153.91 110.797Z" fill="#263238"/>
<path d="M170.185 41.0649C171.826 37.6738 173.962 34.4303 176.967 32.2391C179.972 30.0539 183.977 29.0583 187.459 30.3595C190.829 31.6194 193.256 34.7617 196.571 36.1631C199.981 37.6021 203.833 37.0117 207.48 37.5199C215.211 38.5989 221.933 45.2363 223.298 53.1337C224.261 58.7314 222.873 64.9987 225.872 69.7939C228.768 74.4241 235.223 76.623 236.279 82.0069C237.261 87.0259 232.798 91.6228 232.938 96.7331C233.112 103.244 240.49 107.703 240.872 114.206C241.225 120.222 235.418 125.089 235.396 131.12C235.376 136.483 239.984 141.455 238.684 146.644C237.98 149.454 235.706 151.482 233.824 153.633C231.941 155.784 230.284 158.705 231.19 161.464C210.827 159.424 190.459 157.385 170.096 155.345C172.294 143.011 174.405 129.816 169.548 118.263C167.795 114.094 165.197 110.335 163.415 106.175C161.354 101.35 160.439 96.0896 159.967 90.8485C159.075 80.9303 159.712 70.9344 160.986 61.0748C161.963 53.5457 163.937 45.1087 170.369 41.398" fill="#263238"/>
<path d="M165.857 129.131C165.902 129.107 165.265 128.437 164.761 126.911C164.246 125.392 164.072 123.009 164.645 120.197C164.919 118.789 165.341 117.278 165.734 115.623C166.11 113.976 166.477 112.158 166.335 110.231C166.242 108.305 165.712 106.327 164.966 104.383C164.22 102.438 163.261 100.514 162.337 98.524C161.413 96.54 160.573 94.5641 160.088 92.557C159.591 90.5573 159.539 88.5336 159.921 86.6956C160.309 84.8509 161.017 83.1876 161.591 81.602C161.875 80.8066 162.162 80.0414 162.353 79.2635C162.532 78.4871 162.637 77.7383 162.727 77.0218C163.066 74.1526 163.179 71.8204 163.316 70.2151C163.378 69.4101 163.444 68.7886 163.489 68.3723C163.512 68.1792 163.534 68.017 163.549 67.8926C163.56 67.787 163.565 67.7312 163.558 67.7258C163.558 67.7258 163.541 67.7771 163.518 67.8841C163.495 67.9912 163.461 68.1487 163.428 68.3614C163.36 68.7806 163.276 69.4043 163.195 70.2054C163.017 71.8097 162.874 74.1395 162.509 76.9934C162.406 77.7053 162.3 78.4481 162.119 79.2064C161.931 79.9533 161.637 80.7193 161.353 81.5087C160.771 83.0829 160.046 84.7544 159.646 86.6375C159.239 88.5214 159.292 90.6002 159.793 92.6361C160.277 94.6803 161.131 96.6728 162.055 98.6628C162.981 100.659 163.938 102.571 164.682 104.498C165.431 106.417 165.95 108.359 166.05 110.242C166.193 112.125 165.846 113.916 165.482 115.562C165.106 117.209 164.691 118.732 164.43 120.15C163.886 122.995 164.094 125.417 164.646 126.95C164.914 127.72 165.232 128.264 165.466 128.621C165.583 128.797 165.688 128.919 165.753 129.009C165.817 129.093 165.858 129.137 165.857 129.131Z" fill="#455A64"/>
<path d="M217.364 116.754L222.657 121.525C222.657 121.525 240.862 125.664 242.86 126.583C244.858 127.503 240.628 206.382 240.628 206.382C240.628 206.382 261.111 225.978 263.184 233.666C265.256 241.348 272.908 286.792 272.908 286.792L161.81 300.458L162.948 219.231L157.4 188.53L161.092 131.803L175.601 126.16L182.8 118.884L217.371 116.759L217.364 116.754Z" fill="#ADEF80"/>
<path d="M242.86 126.583C242.86 126.583 250.845 129.483 254.536 133.353C258.234 137.228 266.022 157.779 268.078 164.402C270.133 171.024 274.694 178.48 274.36 181.826L273.817 185.457C273.817 185.457 276.279 199.408 274.785 203.412C273.297 207.416 270.766 206.961 270.766 206.961C270.766 206.961 271.871 216.522 266.634 218.417C256.863 221.944 245.139 221.62 241.047 216.523C236.955 211.427 236.865 209.095 236.865 209.095L239.002 188.212L240.936 182.411L241.534 166.52L242.86 126.583Z" fill="#ADEF80"/>
<path d="M161.085 131.797C161.085 131.797 156.63 133.688 150.684 143.393C144.739 153.097 130.434 177.084 130.434 177.084C130.434 177.084 120.125 173.813 117.002 174.706C117.002 174.706 114.139 170.391 108.156 168.153C103.004 166.223 98.0874 168.827 98.0874 168.827L93.344 185.007C92.599 188.018 91.726 194.449 93.6086 196.904C96.1027 200.161 101.232 205.399 107.2 201.838C107.2 201.838 130.214 218.547 137.797 219.969C147.249 221.745 161.064 215.169 162.258 193.354C163.455 171.47 161.085 131.797 161.085 131.797Z" fill="#ADEF80"/>
<path d="M197.818 231.078C197.818 231.078 197.821 231.004 197.815 230.858C197.806 230.693 197.792 230.48 197.776 230.206C197.739 229.616 197.683 228.77 197.61 227.693C197.465 225.497 197.257 222.346 197.006 218.464C196.524 210.666 195.985 199.889 195.815 187.981C195.738 182.022 195.767 176.346 195.86 171.188C195.971 166.029 196.134 161.384 196.34 157.489C196.423 155.541 196.546 153.778 196.636 152.233C196.72 150.683 196.819 149.353 196.9 148.269C196.976 147.193 197.034 146.351 197.075 145.764C197.089 145.492 197.104 145.276 197.114 145.109C197.119 144.961 197.122 144.887 197.116 144.888C197.11 144.888 197.102 144.963 197.084 145.106C197.068 145.268 197.047 145.485 197.015 145.759C196.962 146.348 196.881 147.192 196.785 148.259C196.686 149.344 196.57 150.677 196.468 152.223C196.36 153.77 196.224 155.528 196.124 157.479C195.888 161.378 195.708 166.018 195.579 171.18C195.469 176.345 195.434 182.023 195.511 187.981C195.683 199.902 196.257 210.681 196.793 218.478C197.058 222.376 197.302 225.529 197.498 227.701C197.594 228.775 197.668 229.618 197.723 230.206C197.756 230.478 197.771 230.697 197.79 230.854C197.808 230.999 197.818 231.078 197.818 231.078Z" fill="#263238"/>
<g opacity="0.3">
<path d="M254.762 220.908C250.763 225.056 243.804 225.746 239.057 222.46C235.766 220.185 233.734 216.473 231.04 213.48C225.425 207.252 217.182 204.39 210.46 199.445C206.381 196.445 202.729 192.595 197.986 190.94C192.913 189.166 187.401 190.181 182.08 190.707C176.759 191.233 170.877 191.079 166.757 187.55C176.195 186.696 185.634 185.848 195.072 184.993C198.623 184.673 202.288 184.363 205.694 185.477C210.461 187.044 213.968 191.114 217.681 194.577C221.872 198.489 226.608 201.789 231.688 204.347C233.678 205.348 235.839 206.333 237.063 208.237C237.829 209.418 238.141 210.84 238.66 212.15C241.094 218.309 248.695 221.722 254.709 219.363" fill="black"/>
</g>
<path d="M236.983 210.007C236.983 210.007 236.977 210.106 236.995 210.3C237.019 210.494 237.077 210.775 237.203 211.121C237.438 211.816 237.913 212.769 238.648 213.85C239.394 214.918 240.389 216.12 241.694 217.229C242.987 218.334 244.646 219.356 246.557 219.814C248.455 220.311 250.318 220.425 251.992 220.458C253.672 220.485 255.182 220.397 256.445 220.291C257.708 220.184 258.725 220.059 259.429 219.966C259.752 219.921 260.015 219.876 260.237 219.843C260.418 219.808 260.517 219.79 260.515 219.778C260.512 219.754 260.122 219.783 259.414 219.84C258.711 219.895 257.69 219.984 256.429 220.066C255.168 220.141 253.661 220.204 251.998 220.163C250.333 220.11 248.487 219.988 246.632 219.504C244.758 219.054 243.159 218.079 241.875 216.999C240.58 215.925 239.582 214.748 238.823 213.718C238.074 212.676 237.585 211.749 237.317 211.076C237.044 210.411 237.018 210.003 236.983 210.007Z" fill="#263238"/>
<path d="M241.6 156.773C241.6 156.773 241.589 156.878 241.594 157.068C241.605 157.3 241.615 157.58 241.633 157.916C241.676 158.652 241.729 159.713 241.778 161.032C241.892 163.661 241.886 167.293 241.921 171.312C241.95 175.136 242.14 178.62 242.396 181.183L242.459 181.065C241.816 181.371 241.256 181.71 240.84 182.117C240.418 182.512 240.171 182.978 240.052 183.367C239.828 184.167 239.944 184.625 239.944 184.625C239.987 184.632 239.917 184.162 240.17 183.407C240.304 183.041 240.55 182.619 240.964 182.249C241.371 181.874 241.923 181.56 242.555 181.268L242.629 181.234L242.618 181.15C242.417 178.592 242.258 175.116 242.229 171.299C242.201 167.285 242.17 163.639 241.996 161.011C241.923 159.695 241.829 158.634 241.756 157.9C241.715 157.562 241.68 157.284 241.659 157.06C241.635 156.866 241.617 156.765 241.605 156.766L241.6 156.773Z" fill="#263238"/>
<path d="M161.37 210.526C161.37 210.526 161.363 210.465 161.349 210.356C161.321 210.225 161.289 210.063 161.252 209.859C161.155 209.405 161.016 208.766 160.845 207.959C160.667 207.135 160.436 206.133 160.219 204.951C160.003 203.775 159.696 202.445 159.465 200.953C159.222 199.468 158.921 197.843 158.699 196.085C158.579 195.211 158.438 194.302 158.329 193.365C158.225 192.427 158.125 191.464 158.014 190.472C157.634 186.507 157.377 182.135 157.414 177.543C157.469 172.948 157.809 168.583 158.284 164.636C158.419 163.65 158.545 162.69 158.675 161.76C158.806 160.83 158.981 159.932 159.125 159.061C159.399 157.316 159.756 155.709 160.058 154.236C160.2 153.501 160.359 152.801 160.523 152.149C160.681 151.492 160.831 150.872 160.969 150.291C161.231 149.13 161.515 148.138 161.731 147.327C161.944 146.534 162.111 145.906 162.229 145.456C162.281 145.253 162.321 145.095 162.354 144.969C162.381 144.855 162.392 144.798 162.386 144.799C162.381 144.8 162.363 144.851 162.323 144.96C162.285 145.087 162.232 145.241 162.173 145.439C162.037 145.885 161.856 146.502 161.619 147.291C161.385 148.099 161.082 149.081 160.802 150.244C160.653 150.827 160.496 151.441 160.332 152.099C160.156 152.752 159.998 153.452 159.844 154.189C159.53 155.663 159.155 157.267 158.868 159.013C158.719 159.884 158.537 160.784 158.402 161.72C158.273 162.656 158.135 163.618 157.999 164.603C157.508 168.558 157.158 172.938 157.104 177.544C157.068 182.149 157.334 186.538 157.726 190.507C157.837 191.499 157.95 192.467 158.053 193.405C158.168 194.341 158.316 195.249 158.436 196.13C158.671 197.892 158.984 199.515 159.244 200.998C159.493 202.489 159.811 203.817 160.045 204.991C160.279 206.164 160.528 207.17 160.724 207.986C160.918 208.79 161.073 209.421 161.188 209.873C161.243 210.075 161.281 210.236 161.314 210.361C161.345 210.467 161.364 210.526 161.37 210.526Z" fill="#263238"/>
<path d="M133.993 199.566C133.993 199.566 134.075 199.256 134.165 198.68C134.262 198.11 134.355 197.271 134.425 196.238C134.5 195.198 134.515 193.964 134.465 192.584C134.397 191.212 134.259 189.702 133.995 188.134C133.724 186.566 133.359 185.096 132.97 183.776C132.564 182.465 132.14 181.296 131.731 180.347C131.321 179.391 130.959 178.632 130.682 178.127C130.41 177.614 130.245 177.34 130.229 177.348C130.212 177.357 130.332 177.655 130.576 178.183C130.819 178.705 131.152 179.473 131.532 180.433C131.919 181.391 132.319 182.556 132.706 183.864C133.076 185.174 133.429 186.639 133.697 188.188C133.954 189.745 134.102 191.236 134.186 192.599C134.253 193.965 134.255 195.192 134.209 196.228C134.169 197.257 134.11 198.092 134.05 198.67C133.996 199.247 133.976 199.568 134 199.571L133.993 199.566Z" fill="#263238"/>
<path d="M112.755 192.831C112.755 192.831 112.92 192.627 113.181 192.227C113.442 191.827 113.786 191.226 114.181 190.466C114.967 188.947 115.876 186.737 116.48 184.179C117.077 181.615 117.253 179.22 117.226 177.494C117.215 176.63 117.177 175.936 117.118 175.453C117.065 174.975 117.027 174.709 117.009 174.712C116.956 174.718 117.044 175.774 117.011 177.49C116.982 179.198 116.773 181.567 116.184 184.099C115.583 186.632 114.72 188.83 113.99 190.361C113.26 191.898 112.714 192.793 112.76 192.824L112.755 192.831Z" fill="#263238"/>
<path d="M98.9734 196.244C98.9734 196.244 99.1905 195.972 99.5313 195.445C99.8787 194.924 100.337 194.138 100.853 193.149C101.885 191.157 103.103 188.266 103.802 184.88C104.149 183.187 104.34 181.545 104.395 180.048C104.419 178.548 104.372 177.192 104.186 176.068C104.122 175.506 104.019 175.003 103.917 174.562C103.832 174.119 103.739 173.744 103.636 173.444C103.454 172.834 103.342 172.505 103.319 172.513C103.296 172.522 103.374 172.862 103.521 173.476C103.606 173.778 103.682 174.155 103.749 174.601C103.832 175.039 103.918 175.543 103.969 176.101C104.124 177.217 104.146 178.557 104.108 180.04C104.039 181.52 103.84 183.146 103.497 184.819C102.806 188.173 101.627 191.054 100.657 193.056C100.165 194.055 99.7391 194.856 99.4233 195.391C99.114 195.932 98.9492 196.241 98.9683 196.251L98.9734 196.244Z" fill="#263238"/>
<path d="M176.687 126.548C176.687 126.548 176.741 126.694 176.863 126.962C177 127.251 177.184 127.633 177.416 128.114C177.891 129.117 178.588 130.558 179.378 132.381C180.975 136.005 182.976 141.119 184.629 146.945C185.279 149.22 185.832 151.434 186.289 153.506L186.37 153.87L186.558 153.553C189.185 149.065 191.35 145.333 192.64 143.071L192.543 143.101C193.371 143.484 194.022 143.784 194.496 144.002C194.704 144.093 194.868 144.165 195.007 144.227C195.12 144.275 195.183 144.298 195.188 144.291C195.188 144.291 195.135 144.248 195.026 144.188C194.892 144.119 194.733 144.034 194.535 143.93C194.065 143.693 193.429 143.373 192.614 142.958L192.551 142.929L192.517 142.988C191.168 145.209 188.963 148.914 186.317 153.392L186.585 153.439C186.134 151.366 185.585 149.14 184.935 146.858C183.28 141.015 181.236 135.893 179.588 132.287C178.769 130.481 178.043 129.043 177.534 128.057C177.286 127.59 177.079 127.217 176.931 126.935C176.793 126.682 176.711 126.551 176.699 126.552L176.687 126.548Z" fill="#263238"/>
<path d="M215.259 133.051C215.259 133.051 215.181 133.141 215.048 133.323C214.902 133.537 214.72 133.805 214.498 134.139C214.032 134.852 213.359 135.886 212.566 137.192C210.965 139.793 208.856 143.444 206.725 147.601C205.796 149.408 204.943 151.156 204.188 152.77L204.428 152.741C202.293 150.317 200.463 148.242 199.132 146.731C198.497 146.024 197.979 145.45 197.592 145.02C197.227 144.623 197.029 144.42 197.012 144.428C197.002 144.442 197.179 144.672 197.516 145.084C197.887 145.529 198.383 146.118 198.998 146.852C200.308 148.384 202.111 150.486 204.213 152.933L204.359 153.099L204.454 152.897C205.217 151.294 206.076 149.551 207.005 147.744C209.131 143.6 211.209 139.934 212.758 137.303C213.519 136.019 214.148 134.973 214.607 134.199C214.81 133.855 214.978 133.577 215.106 133.352C215.218 133.155 215.271 133.05 215.265 133.045L215.259 133.051Z" fill="#263238"/>
<path d="M175.879 246.773C175.879 246.773 175.911 246.794 175.987 246.827C176.075 246.866 176.183 246.914 176.321 246.97C176.471 247.032 176.654 247.107 176.868 247.198C176.975 247.246 177.094 247.292 177.22 247.344C177.35 247.384 177.492 247.421 177.639 247.458C178.812 247.829 180.579 248.133 182.81 248.331C187.286 248.688 193.624 248.479 200.945 247.578L200.963 247.576C204.655 246.656 208.646 245.453 212.714 243.953C222.477 240.354 230.749 235.694 236.418 231.887C242.113 228.101 245.29 225.269 245.29 225.269C245.29 225.269 245.234 225.3 245.124 225.375C245.01 225.463 244.856 225.574 244.665 225.714C244.251 226.035 243.662 226.481 242.915 227.052C242.138 227.62 241.196 228.306 240.108 229.108C238.992 229.877 237.737 230.78 236.299 231.699C230.612 235.453 222.346 240.07 212.613 243.659C208.556 245.158 204.577 246.359 200.898 247.29L200.915 247.288C193.621 248.209 187.288 248.461 182.831 248.157C180.603 247.989 178.845 247.709 177.671 247.375C177.523 247.338 177.382 247.306 177.253 247.273C177.128 247.227 177.009 247.18 176.902 247.138C176.69 247.06 176.502 246.991 176.352 246.936C176.215 246.885 176.103 246.85 176.01 246.818C175.935 246.791 175.892 246.784 175.892 246.784L175.879 246.773Z" fill="#263238"/>
<path d="M178.247 232.179C178.247 232.179 178.29 232.192 178.381 232.205C178.49 232.216 178.622 232.225 178.78 232.242C179.159 232.269 179.677 232.31 180.326 232.352C181.669 232.408 183.615 232.42 186.017 232.309C190.817 232.111 197.419 231.378 204.656 230.279C211.896 229.156 218.405 227.864 223.082 226.755C225.417 226.198 227.293 225.686 228.582 225.306C229.202 225.107 229.695 224.948 230.056 224.83C230.211 224.775 230.331 224.735 230.434 224.698C230.52 224.669 230.559 224.646 230.559 224.646C230.559 224.646 230.512 224.652 230.424 224.669C230.32 224.694 230.193 224.728 230.037 224.771C229.674 224.871 229.178 225.012 228.55 225.187C227.25 225.531 225.37 226.008 223.031 226.535C218.354 227.589 211.84 228.844 204.612 229.966C197.38 231.058 190.794 231.825 186.007 232.083C183.614 232.224 181.672 232.242 180.335 232.229C179.687 232.204 179.172 232.188 178.789 232.173C178.627 232.169 178.496 232.167 178.389 232.168C178.299 232.166 178.252 232.172 178.253 232.178L178.247 232.179Z" fill="#263238"/>
<path d="M199.123 247.649C199.173 247.624 198.742 246.782 198.23 245.342C197.726 243.907 197.136 241.876 196.781 239.571C196.409 237.274 196.345 235.153 196.481 233.64C196.61 232.122 196.948 231.234 196.892 231.216C196.873 231.206 196.781 231.426 196.64 231.83C196.511 232.238 196.365 232.845 196.269 233.611C196.075 235.144 196.107 237.292 196.476 239.615C196.834 241.938 197.462 243.989 198.025 245.416C198.158 245.774 198.305 246.093 198.435 246.372C198.558 246.651 198.671 246.888 198.777 247.072C198.979 247.452 199.105 247.651 199.122 247.643L199.123 247.649Z" fill="#263238"/>
<path d="M201.342 259.918C201.383 259.913 206.015 297.036 205.911 295.951C205.808 294.866 200.979 255.565 200.759 253.918C200.538 252.32 200.337 250.879 200.168 249.697C200.011 248.619 199.911 247.95 199.87 247.955C199.829 247.96 199.847 248.639 199.951 249.724C200.054 250.809 200.233 252.308 200.454 253.961C200.674 255.56 200.875 257.001 201.045 258.182C201.201 259.261 205.694 295.978 205.735 295.973L201.342 259.918Z" fill="#263238"/>
<path d="M242.782 181.706C242.782 181.706 243.045 181.711 243.51 181.659C243.974 181.602 244.646 181.538 245.478 181.466C247.137 181.33 249.449 181.26 251.985 181.463C254.522 181.673 256.794 182.111 258.418 182.512C259.23 182.713 259.89 182.883 260.336 183.018C260.787 183.147 261.038 183.202 261.048 183.182C261.057 183.162 260.812 183.064 260.368 182.898C259.925 182.731 259.279 182.523 258.469 182.297C256.851 181.84 254.561 181.361 252.007 181.154C249.447 180.954 247.122 181.056 245.457 181.248C244.622 181.345 243.955 181.445 243.495 181.539C243.035 181.626 242.78 181.688 242.789 181.711L242.782 181.706Z" fill="#263238"/>
<path d="M262.511 184.652C262.465 184.713 263.723 185.343 265.242 186.978C266.77 188.587 268.399 191.306 269.296 194.618C270.193 197.936 270.358 201.075 270.467 203.318C270.511 204.404 270.551 205.307 270.575 205.991C270.606 206.625 270.625 206.973 270.648 206.97C270.672 206.967 270.689 206.621 270.694 205.989C270.706 205.356 270.707 204.442 270.681 203.31C270.624 201.054 270.492 197.893 269.583 194.534C268.675 191.174 266.982 188.42 265.391 186.825C264.6 186.02 263.88 185.459 263.35 185.125C263.096 184.948 262.874 184.84 262.733 184.76C262.586 184.68 262.51 184.646 262.505 184.653L262.511 184.652Z" fill="#263238"/>
<path d="M223.785 170.746C223.69 170.746 223.769 172.656 223.322 174.937C222.888 177.223 222.098 178.945 222.186 178.984C222.218 179.004 222.46 178.594 222.76 177.883C223.061 177.177 223.395 176.161 223.622 174.998C223.843 173.836 223.914 172.767 223.903 171.995C223.892 171.224 223.821 170.748 223.785 170.746Z" fill="white"/>
<g opacity="0.3">
<path d="M227.958 173.833C226.139 174.805 224.003 175.135 221.981 174.746C222.07 175.667 222.166 176.588 222.255 177.509C217.388 176.685 212.827 174.032 209.615 170.177C206.403 166.322 204.566 161.279 204.528 156.218C204.279 157.052 203.16 157.312 202.386 156.935C201.618 156.557 201.132 155.759 200.721 154.987C199.13 152 198.014 148.745 197.436 145.4C199.739 147.828 202.041 150.256 204.35 152.682C206.077 148.686 208.374 144.956 211.139 141.642C215.379 152.644 220.643 163.239 226.823 173.237" fill="black"/>
</g>
<g opacity="0.3">
<path d="M130.795 178.125C135.838 183.625 138.851 191.05 139.086 198.584C139.105 199.225 139.103 199.888 138.86 200.482C138.616 201.07 138.076 201.572 137.449 201.569C136.661 201.562 136.079 200.812 135.756 200.073C134.921 198.182 134.943 196.039 134.815 193.975C134.474 188.393 132.907 182.882 130.275 177.968" fill="black"/>
</g>
<g opacity="0.3">
<path d="M101.605 190.971L101.256 192.013C100.839 192.359 100.814 193.123 100.518 193.582C100.223 194.042 99.5371 194.236 99.0271 194.066C98.7603 193.982 98.5595 193.756 98.3829 193.532C96.491 191.244 95.0408 188.57 94.1472 185.718C97.0059 187.09 99.2825 188.772 101.611 190.97L101.605 190.971Z" fill="black"/>
</g>
<g opacity="0.3">
<path d="M117.095 178.172C117.619 182.193 117.539 186.342 116.362 190.204C115.185 194.066 112.849 197.622 109.522 199.767C112.758 193.193 116.671 186.701 117.095 178.172Z" fill="black"/>
</g>
<g opacity="0.3">
<path d="M228.201 236.847C228.201 236.847 228.162 236.87 228.146 236.885C228.47 236.514 228.794 236.142 229.104 235.755L228.201 236.847Z" fill="black"/>
</g>
<g opacity="0.3">
<path d="M228.139 236.879C222.146 243.725 214.078 248.636 205.328 250.725C196.104 252.927 186.176 251.977 177.464 248.068C194.971 250.312 213.14 246.299 228.139 236.879Z" fill="black"/>
</g>
<path d="M251.484 192.473C251.484 192.473 251.701 192.532 252.105 192.574C252.505 192.623 253.088 192.662 253.805 192.672C255.246 192.697 257.239 192.562 259.387 192.083C261.534 191.592 263.399 190.854 264.692 190.21C265.338 189.892 265.852 189.608 266.189 189.388C266.532 189.174 266.714 189.048 266.706 189.03C266.682 188.984 265.907 189.423 264.601 190.007C263.296 190.597 261.443 191.291 259.319 191.773C257.195 192.249 255.229 192.417 253.802 192.452C252.375 192.486 251.49 192.423 251.484 192.473Z" fill="white"/>
<path d="M251.789 198.004C251.789 198.004 252.038 198.084 252.502 198.174C252.966 198.264 253.646 198.359 254.483 198.427C256.165 198.57 258.513 198.551 261.051 198.092C263.588 197.626 265.796 196.815 267.317 196.082C268.077 195.719 268.681 195.393 269.086 195.147C269.491 194.901 269.706 194.758 269.698 194.74C269.668 194.689 268.766 195.211 267.233 195.884C265.699 196.557 263.509 197.323 260.995 197.786C258.486 198.242 256.167 198.294 254.498 198.211C252.824 198.129 251.796 197.961 251.791 198.017L251.789 198.004Z" fill="white"/>
<path d="M242.775 150.857C242.775 150.857 243.084 150.948 243.651 151.05C244.274 151.163 245.079 151.31 246.043 151.485C248.063 151.856 250.848 152.391 253.909 153.081C256.971 153.772 259.718 154.483 261.71 155.017C262.661 155.274 263.45 155.49 264.061 155.654C264.616 155.8 264.929 155.872 264.933 155.853C264.936 155.834 264.642 155.717 264.094 155.533C263.547 155.349 262.752 155.097 261.767 154.801C259.792 154.21 257.04 153.463 253.979 152.772C250.912 152.082 248.112 151.58 246.081 151.266C245.066 151.109 244.241 150.996 243.672 150.931C243.104 150.866 242.784 150.837 242.78 150.856L242.775 150.857Z" fill="white"/>
<path d="M242 160.851C241.993 160.938 247.46 161.357 254.211 161.79C260.963 162.223 266.436 162.501 266.438 162.415C266.445 162.328 260.978 161.909 254.226 161.476C247.481 161.042 242.001 160.765 242 160.851Z" fill="white"/>
<path d="M182.466 139.25C182.55 139.301 183.42 137.747 184.889 136.156C186.344 134.554 187.809 133.564 187.751 133.485C187.729 133.451 187.336 133.653 186.756 134.074C186.175 134.489 185.407 135.129 184.665 135.938C183.924 136.747 183.345 137.572 182.974 138.194C182.604 138.816 182.428 139.231 182.466 139.25Z" fill="white"/>
<path d="M180.467 136.43C180.55 136.475 181.344 135.022 182.624 133.453C183.892 131.881 185.144 130.813 185.087 130.734C185.042 130.666 183.683 131.643 182.39 133.249C181.089 134.844 180.398 136.401 180.467 136.43Z" fill="white"/>
<path d="M219.473 227.329C219.557 227.337 219.948 221.499 220.344 214.293C220.74 207.086 220.993 201.241 220.909 201.233C220.824 201.225 220.433 207.063 220.037 214.269C219.641 221.475 219.388 227.321 219.473 227.329Z" fill="white"/>
<path d="M212.237 228.875C212.237 228.875 212.271 228.76 212.304 228.542C212.338 228.286 212.377 227.974 212.425 227.588C212.526 226.76 212.659 225.56 212.803 224.07C213.094 221.097 213.417 216.985 213.644 212.43C213.871 207.876 213.953 203.744 213.962 200.756C213.962 199.26 213.957 198.052 213.937 197.214C213.925 196.823 213.916 196.505 213.909 196.255C213.9 196.035 213.886 195.92 213.88 195.921C213.868 195.923 213.858 196.034 213.849 196.256C213.839 196.509 213.83 196.829 213.818 197.217C213.801 198.096 213.776 199.295 213.746 200.752C213.684 203.734 213.565 207.858 213.344 212.412C213.116 216.96 212.823 221.075 212.592 224.047C212.479 225.503 212.38 226.692 212.316 227.571C212.292 227.96 212.265 228.277 212.249 228.53C212.234 228.753 212.237 228.869 212.248 228.867L212.237 228.875Z" fill="white"/>
<path d="M227.017 237.018C227.099 237.007 226.93 234.661 226.639 231.765C226.343 228.876 226.038 226.54 225.955 226.544C225.872 226.548 226.042 228.901 226.333 231.796C226.628 234.686 226.934 237.022 227.017 237.018Z" fill="white"/>
<path d="M221.76 239.718C221.802 239.719 221.889 239.022 221.946 237.88C222.002 236.739 222.004 235.156 221.885 233.41C221.76 231.666 221.537 230.098 221.322 228.978C221.106 227.851 220.92 227.169 220.886 227.179C220.839 227.185 220.949 227.889 221.112 229.016C221.268 230.144 221.46 231.702 221.584 233.435C221.702 235.169 221.733 236.735 221.736 237.875C221.739 239.016 221.724 239.717 221.773 239.723L221.76 239.718Z" fill="white"/>
<path d="M224.056 292.802C224.138 292.792 219.64 254.577 219.178 250.291C218.711 246.006 218.267 242.541 218.184 242.545C218.101 242.555 218.41 246.037 218.872 250.323C219.339 254.608 219.784 258.073 219.866 258.063L224.056 292.802Z" fill="white"/>
<path d="M217.735 292.668C217.817 292.657 213.361 254.785 212.957 251.062C212.558 247.333 212.163 244.321 212.075 244.332C211.993 244.342 212.246 247.372 212.651 251.1C213.05 254.829 213.445 257.841 213.533 257.83L217.735 292.668Z" fill="white"/>
<path d="M142.013 159.351C141.968 159.424 145.286 161.475 149.422 163.923C153.558 166.37 156.939 168.297 156.983 168.224C157.028 168.151 153.71 166.1 149.574 163.652C145.444 161.204 142.057 159.278 142.013 159.357L142.013 159.351Z" fill="white"/>
<path d="M143.456 154.697C143.418 154.775 146.765 156.768 150.935 159.149C155.104 161.531 158.52 163.405 158.558 163.327C158.596 163.249 155.25 161.256 151.08 158.874C146.91 156.492 143.494 154.618 143.456 154.697Z" fill="white"/>
<path d="M124.27 212.985C124.27 212.985 124.352 212.877 124.48 212.659C124.622 212.408 124.804 212.092 125.03 211.696C125.147 211.485 125.279 211.248 125.421 210.998C125.556 210.736 125.687 210.444 125.834 210.137C126.121 209.513 126.483 208.818 126.782 208.003C126.941 207.597 127.11 207.177 127.283 206.739C127.455 206.295 127.588 205.824 127.749 205.339C128.09 204.377 128.334 203.31 128.621 202.195C129.12 199.95 129.497 197.439 129.623 194.78C129.719 192.118 129.55 189.575 129.239 187.289C129.045 186.154 128.887 185.063 128.628 184.071C128.507 183.57 128.411 183.085 128.278 182.63C128.144 182.174 128.013 181.736 127.883 181.316C127.655 180.474 127.35 179.744 127.116 179.099C126.993 178.776 126.889 178.47 126.772 178.196C126.65 177.929 126.542 177.685 126.437 177.459C126.242 177.041 126.087 176.704 125.966 176.443C125.854 176.212 125.792 176.097 125.78 176.098C125.769 176.1 125.814 176.229 125.909 176.469C126.02 176.737 126.158 177.082 126.323 177.503C126.417 177.731 126.519 177.982 126.63 178.251C126.735 178.526 126.832 178.833 126.944 179.157C127.161 179.811 127.448 180.542 127.665 181.38C127.781 181.795 127.907 182.234 128.035 182.69C128.162 183.147 128.246 183.633 128.361 184.128C128.607 185.116 128.752 186.196 128.939 187.326C129.23 189.596 129.391 192.116 129.298 194.758C129.176 197.398 128.808 199.891 128.325 202.121C128.05 203.228 127.811 204.288 127.487 205.248C127.332 205.733 127.205 206.203 127.039 206.646C126.872 207.084 126.716 207.508 126.563 207.913C126.281 208.727 125.932 209.426 125.663 210.054C125.522 210.366 125.398 210.663 125.275 210.924C125.139 211.179 125.019 211.415 124.909 211.637C124.703 212.043 124.54 212.369 124.411 212.625C124.301 212.853 124.245 212.976 124.252 212.981L124.27 212.985Z" fill="white"/>
<path d="M116.554 207.961C116.554 207.961 116.633 207.872 116.759 207.685C116.899 207.465 117.08 207.191 117.301 206.851C117.537 206.491 117.815 206.04 118.107 205.501C118.404 204.962 118.759 204.36 119.085 203.657C119.429 202.965 119.8 202.202 120.144 201.356C120.518 200.525 120.84 199.602 121.193 198.639C121.848 196.693 122.45 194.503 122.883 192.162C123.299 189.817 123.497 187.548 123.565 185.485C123.57 184.454 123.592 183.47 123.532 182.551C123.509 181.634 123.428 180.78 123.35 180.004C123.29 179.226 123.169 178.53 123.081 177.915C123 177.299 122.894 176.779 122.799 176.349C122.714 175.948 122.645 175.626 122.583 175.37C122.532 175.149 122.5 175.03 122.488 175.032C122.476 175.033 122.491 175.154 122.525 175.383C122.569 175.641 122.616 175.973 122.683 176.375C122.759 176.802 122.848 177.33 122.912 177.942C122.987 178.552 123.09 179.251 123.138 180.024C123.204 180.801 123.272 181.645 123.283 182.558C123.329 183.472 123.3 184.445 123.283 185.471C123.202 187.523 122.989 189.77 122.583 192.095C122.153 194.417 121.562 196.594 120.923 198.531C120.576 199.493 120.266 200.415 119.903 201.244C119.572 202.089 119.213 202.856 118.887 203.553C118.574 204.26 118.231 204.866 117.952 205.41C117.68 205.958 117.414 206.414 117.191 206.785C116.989 207.135 116.828 207.419 116.701 207.649C116.594 207.846 116.536 207.957 116.548 207.962L116.554 207.961Z" fill="white"/>
<path d="M104.983 179.546C104.989 179.601 105.647 179.464 106.707 179.359C107.768 179.253 109.243 179.224 110.859 179.461C112.469 179.699 113.884 180.15 114.882 180.555C115.88 180.953 116.468 181.274 116.492 181.228C116.502 181.208 116.364 181.108 116.106 180.95C115.847 180.786 115.458 180.576 114.964 180.348C113.977 179.887 112.544 179.389 110.904 179.149C109.264 178.909 107.752 178.979 106.686 179.14C106.153 179.218 105.723 179.308 105.435 179.392C105.146 179.471 104.986 179.527 104.989 179.551L104.983 179.546Z" fill="white"/>
<path d="M104.768 185.804C104.786 185.851 105.368 185.681 106.33 185.502C107.291 185.316 108.636 185.15 110.126 185.188C111.616 185.225 112.957 185.459 113.909 185.685C114.861 185.912 115.446 186.11 115.459 186.065C115.473 186.033 114.914 185.758 113.96 185.471C113.006 185.183 111.648 184.909 110.129 184.875C108.61 184.841 107.246 185.045 106.285 185.286C105.325 185.527 104.759 185.775 104.769 185.81L104.768 185.804Z" fill="white"/>
<path d="M201.997 138.455C201.946 138.528 203.466 139.734 205.245 141.343C207.023 142.946 208.387 144.342 208.451 144.279C208.483 144.25 208.179 143.864 207.642 143.28C207.111 142.695 206.342 141.919 205.449 141.109C204.556 140.299 203.703 139.619 203.073 139.15C202.437 138.683 202.029 138.426 202.004 138.46L201.997 138.455Z" fill="white"/>
<path d="M203.617 135.085C203.565 135.152 204.898 136.289 206.6 137.619C208.297 138.949 209.717 139.971 209.767 139.897C209.819 139.829 208.486 138.693 206.784 137.363C205.087 136.032 203.667 135.011 203.617 135.085Z" fill="white"/>
<path d="M159.784 202.821C159.784 202.821 159.907 202.849 160.143 202.875C160.414 202.897 160.758 202.928 161.18 202.968C162.084 203.047 163.389 203.132 165.003 203.209C168.237 203.364 172.707 203.433 177.638 203.231C182.569 203.023 187.018 202.58 190.223 202.162C191.826 201.952 193.12 201.762 194.007 201.604C194.427 201.528 194.766 201.468 195.035 201.423C195.268 201.375 195.389 201.348 195.388 201.336C195.387 201.324 195.262 201.333 195.027 201.356C194.756 201.389 194.416 201.431 193.993 201.483C193.094 201.594 191.801 201.753 190.195 201.938C186.99 202.302 182.542 202.708 177.623 202.914C172.703 203.115 168.238 203.081 165.012 202.988C163.396 202.941 162.089 202.893 161.189 202.85C160.764 202.835 160.423 202.822 160.147 202.813C159.908 202.806 159.783 202.809 159.784 202.821Z" fill="white"/>
<path d="M160.208 208.307C160.208 208.307 160.331 208.335 160.567 208.361C160.838 208.383 161.182 208.414 161.604 208.454C162.509 208.533 163.813 208.618 165.427 208.696C168.661 208.85 173.131 208.919 178.063 208.718C182.994 208.51 187.442 208.067 190.647 207.648C192.25 207.438 193.545 207.249 194.432 207.09C194.852 207.014 195.19 206.954 195.459 206.909C195.692 206.862 195.814 206.834 195.812 206.822C195.811 206.81 195.687 206.819 195.451 206.842C195.181 206.876 194.84 206.917 194.417 206.97C193.518 207.08 192.225 207.239 190.62 207.424C187.414 207.788 182.967 208.194 178.048 208.4C173.128 208.601 168.662 208.568 165.436 208.474C163.82 208.427 162.514 208.379 161.614 208.337C161.188 208.322 160.847 208.308 160.571 208.299C160.332 208.292 160.207 208.295 160.208 208.307Z" fill="white"/>
<g opacity="0.3">
<path d="M158.168 209.171C153.999 201.901 152.675 192.741 153.332 184.356C153.988 175.971 156.304 167.842 158.611 159.781C156.126 177.548 157.778 189.133 160.05 204.984L158.168 209.171Z" fill="black"/>
</g>
<path d="M103.325 172.513L81.0749 156.93L76.6173 170.101L101.215 192.019C101.215 192.019 106.507 180.058 103.325 172.513Z" fill="#FFBE9D"/>
<path d="M56.0035 158.021C56.0035 158.021 57.7718 156.104 62.0864 156.996C66.4062 157.882 68.8114 155.954 70.4514 155.225C72.098 154.501 77.0119 153.283 81.3617 157.177L76.6115 170.101L56.4818 173.497L39.7166 174.91C39.7166 174.91 38.8323 173.442 40.2299 172.197L36.601 171.594C36.601 171.594 36.2158 168.318 40.0338 168.13L38.9382 166.351C38.9382 166.351 40.8541 163.405 43.4056 166.206C43.4056 166.206 45.3126 164.156 48.7752 166.656L52.2225 167.14L59.9115 163.219C59.9115 163.219 52.9644 161.97 55.9976 158.021L56.0035 158.021Z" fill="#FFBE9D"/>
<path d="M54.5171 168.968C54.5171 168.968 54.8335 168.824 55.3752 168.525C55.9601 168.189 56.7286 167.745 57.6534 167.214C59.5734 166.095 62.2075 164.526 65.1183 162.781C66.5745 161.915 67.9336 161.037 69.2542 160.427C70.5675 159.805 71.8459 159.482 72.9419 159.47C74.0356 159.44 74.9064 159.682 75.4731 159.925C76.0406 160.174 76.317 160.386 76.3317 160.359C76.3368 160.353 76.2699 160.293 76.1383 160.193C76.0066 160.093 75.7993 159.959 75.5192 159.815C74.9598 159.535 74.0654 159.246 72.9386 159.25C71.8154 159.234 70.4826 159.552 69.1385 160.165C67.7878 160.773 66.4161 161.647 64.9659 162.512C62.0609 164.255 59.4364 165.854 57.5525 167.024C56.6446 167.596 55.8968 168.062 55.3207 168.421C54.7952 168.755 54.5148 168.949 54.5237 168.973L54.5171 168.968Z" fill="#EB996E"/>
<path d="M51.3715 170.937C51.3905 170.897 50.9082 170.613 50.1312 170.163C49.3541 169.713 48.2807 169.084 47.1176 168.356C45.9544 167.629 44.9206 166.934 44.1721 166.425C43.4244 165.922 42.9619 165.605 42.9369 165.645C42.9113 165.678 43.3334 166.056 44.0519 166.611C44.7704 167.167 45.7903 167.894 46.96 168.627C48.1298 169.36 49.2295 169.961 50.0359 170.359C50.8431 170.762 51.3634 170.968 51.3774 170.936L51.3715 170.937Z" fill="#EB996E"/>
<path d="M46.6227 174.128C46.6726 174.048 44.9741 172.895 43.1484 171.145C41.3117 169.402 40.0649 167.752 39.9886 167.811C39.9556 167.833 40.231 168.278 40.7425 168.945C41.2539 169.612 42.0184 170.493 42.9438 171.373C43.8691 172.252 44.7803 172.968 45.4648 173.442C46.1494 173.916 46.603 174.161 46.6227 174.128Z" fill="#EB996E"/>
<path d="M244.628 186.092C244.187 186.146 203.097 172.464 203.097 172.464L198.299 185.241C198.299 185.241 233.626 210.789 240.636 211.147C247.641 211.506 255.357 209.452 254.433 201.948C253.51 194.444 244.628 186.092 244.628 186.092Z" fill="#FFBE9D"/>
<path d="M177.734 173.167C177.734 173.167 179.502 171.251 183.816 172.143C188.136 173.028 190.541 171.101 192.181 170.372C193.828 169.648 198.741 168.571 203.091 172.464L198.341 185.247L178.212 188.644L161.447 190.056C161.447 190.056 160.562 188.588 161.96 187.343L158.331 186.741C158.331 186.741 157.946 183.464 161.764 183.276L160.668 181.498C160.668 181.498 162.584 178.551 165.136 181.353C165.136 181.353 167.043 179.303 170.505 181.802L173.953 182.286L181.642 178.366C181.642 178.366 174.694 177.117 177.728 173.168L177.734 173.167Z" fill="#FFBE9D"/>
<path d="M181.647 178.365C181.653 178.407 182.22 178.417 183.143 178.353C184.066 178.288 185.327 178.115 186.707 177.896C188.094 177.676 189.341 177.492 190.251 177.374C191.161 177.25 191.724 177.174 191.719 177.132C191.714 177.09 191.146 177.086 190.224 177.15C189.307 177.214 188.037 177.364 186.658 177.589C185.271 177.809 184.026 178.017 183.116 178.135C182.207 178.259 181.642 178.323 181.648 178.371L181.647 178.365Z" fill="#EB996E"/>
<path d="M160.34 183.874C160.34 183.874 160.536 183.918 160.896 183.935C161.256 183.952 161.776 183.962 162.42 183.956C163.707 183.945 165.481 183.868 167.431 183.677C169.381 183.48 171.136 183.197 172.4 182.949C173.028 182.823 173.539 182.711 173.887 182.625C174.234 182.539 174.424 182.479 174.421 182.455C174.415 182.407 173.625 182.535 172.361 182.727C171.096 182.919 169.342 183.16 167.399 183.362C165.455 183.558 163.691 183.671 162.411 183.736C161.13 183.802 160.336 183.838 160.341 183.88L160.34 183.874Z" fill="#EB996E"/>
<path d="M163.519 65.0811C163.411 55.5265 168.692 43.42 177.986 43.7732L207.335 49.2401C210.158 49.3467 212.446 51.6596 212.606 54.5593L212.851 123.412C211.507 124.994 195.672 144.005 195.672 144.005L182.581 125.302C182.581 125.302 181.572 113.264 181.575 113.343C181.575 113.343 169.602 112.154 165.995 96.4609C164.201 88.6594 163.644 75.6947 163.519 65.0811Z" fill="#FFBE9D"/>
<path d="M168.546 77.0479C168.589 78.1221 169.512 78.9838 170.601 78.9663C171.696 78.9481 172.548 78.0644 172.505 76.9902C172.462 75.916 171.539 75.0544 170.45 75.0719C169.355 75.09 168.503 75.9737 168.54 77.0486L168.546 77.0479Z" fill="#263238"/>
<path d="M167.083 72.8671C167.347 73.1168 168.762 71.8694 170.891 71.724C173.017 71.5484 174.663 72.5664 174.873 72.283C174.976 72.1538 174.693 71.6979 173.974 71.2344C173.268 70.7754 172.089 70.3622 170.765 70.4577C169.442 70.5592 168.362 71.1397 167.757 71.6987C167.14 72.2591 166.95 72.7547 167.083 72.8671Z" fill="#263238"/>
<path d="M188.81 75.862C188.853 76.9362 189.776 77.7979 190.865 77.7804C191.961 77.7622 192.812 76.8785 192.769 75.8043C192.727 74.7301 191.804 73.8685 190.714 73.8859C189.619 73.9041 188.768 74.7878 188.804 75.8628L188.81 75.862Z" fill="#263238"/>
<path d="M188.314 71.4396C188.577 71.6893 189.998 70.4412 192.128 70.2958C194.253 70.1202 195.899 71.1382 196.109 70.8548C196.212 70.7256 195.93 70.2697 195.211 69.8062C194.504 69.3472 193.326 68.934 192.002 69.0295C190.678 69.1309 189.598 69.7115 188.993 70.2705C188.376 70.8309 188.187 71.3264 188.32 71.4389L188.314 71.4396Z" fill="#263238"/>
<path d="M181.156 87.3403C181.159 87.2173 179.817 87.0757 177.648 86.9439C177.103 86.925 176.575 86.849 176.457 86.477C176.301 86.0792 176.482 85.462 176.697 84.7915C177.111 83.4036 177.54 81.9463 177.997 80.4242C179.791 74.2052 181.043 69.1139 180.796 69.0401C180.548 68.9663 178.9 73.9468 177.112 80.165C176.686 81.6956 176.276 83.1567 175.887 84.5539C175.728 85.2051 175.426 85.9476 175.765 86.7646C175.94 87.1723 176.362 87.4456 176.717 87.5184C177.073 87.6034 177.382 87.59 177.65 87.5877C179.817 87.5542 181.154 87.4694 181.157 87.3463L181.156 87.3403Z" fill="#263238"/>
<path d="M181.576 113.343C181.576 113.343 192.009 113.305 201.826 106.228C201.826 106.228 197.409 117.498 181.859 117.099L181.576 113.343Z" fill="#EB996E"/>
<path d="M186.398 63.1376C186.649 63.7201 188.755 63.2893 191.276 63.4208C193.797 63.5032 195.87 64.1129 196.16 63.556C196.288 63.2888 195.894 62.7546 195.043 62.2337C194.191 61.7128 192.865 61.2565 191.354 61.191C189.842 61.1254 188.483 61.4705 187.602 61.9162C186.714 62.3627 186.287 62.863 186.398 63.1376Z" fill="#263238"/>
<path d="M166.459 65.4126C166.868 65.8835 168.301 65.2656 170.06 65.1167C171.817 64.9006 173.342 65.2221 173.65 64.6751C173.785 64.4132 173.511 63.9317 172.827 63.5069C172.148 63.0813 171.043 62.7756 169.835 62.8996C168.628 63.0236 167.607 63.5479 167.031 64.1033C166.444 64.6601 166.275 65.1837 166.459 65.4186L166.459 65.4126Z" fill="#263238"/>
<path d="M216.07 50.4778C214.411 48.2839 211.679 47.3135 209.083 46.5288C197.913 43.1435 186.351 41.1311 174.738 40.548C173.518 43.09 175.121 46.2784 177.433 47.8646C179.745 49.4447 182.576 49.9122 185.242 50.6882C187.908 51.4643 190.688 52.7722 191.977 55.3C193.346 57.9898 192.675 61.3597 193.914 64.1144C196.042 68.8514 202.805 69.8716 204.904 74.6181C206.497 78.2065 204.749 82.3223 204.564 86.2519C204.354 90.7059 206.336 95.2277 209.735 98.0296C212.416 100.239 215.918 101.311 219.326 101.088C218.907 87.0205 218.495 72.9524 218.077 58.8851C217.991 55.9578 217.83 52.8067 216.071 50.4839L216.07 50.4778Z" fill="#263238"/>
<path d="M180.678 94.2132C181.105 95.1174 181.54 96.039 182.206 96.7913C182.864 97.5383 183.792 98.0989 184.767 98.077C185.808 98.0532 186.765 97.3467 187.277 96.4189C187.789 95.4911 187.902 94.3672 187.777 93.3031C187.658 92.3425 187.145 91.2219 186.202 91.1723C185.812 91.1528 185.441 91.3334 185.087 91.5119C183.504 92.3138 181.92 93.1098 180.33 93.9124" fill="#EB996E"/>
<path d="M182.948 98.2212C182.958 98.0605 184.072 98.4326 185.538 97.7002C186.246 97.3433 187.006 96.6855 187.381 95.7071C187.751 94.7416 187.744 93.4729 187.195 92.4057C187.067 92.1394 186.888 91.8976 186.712 91.6801C186.503 91.485 186.54 91.4927 186.331 91.5369C186.136 91.6037 185.824 91.7832 185.566 91.9131C185.302 92.0498 185.038 92.1804 184.786 92.3096C183.769 92.8211 182.846 93.2719 182.068 93.6375C180.506 94.3694 179.511 94.7677 179.456 94.658C179.401 94.5483 180.293 93.9478 181.778 93.0721C182.523 92.6309 183.415 92.1225 184.408 91.5709C184.659 91.4297 184.917 91.2937 185.173 91.1457C185.448 91.0015 185.657 90.8592 186.043 90.7013C186.231 90.6291 186.5 90.5838 186.773 90.6728C187.041 90.7626 187.217 90.9311 187.347 91.0745C187.591 91.3573 187.807 91.6558 187.973 91.9911C188.657 93.3299 188.631 94.8664 188.125 96.0387C187.61 97.2367 186.638 97.9635 185.79 98.2887C184.925 98.6342 184.16 98.618 183.671 98.5247C183.176 98.4262 182.931 98.2724 182.948 98.2212Z" fill="#263238"/>
<path d="M205.78 84.2561C203.773 87.0912 204.786 91.1126 206.314 94.2734C207.842 97.4342 209.863 100.626 209.657 104.136C209.339 109.455 203.976 113.574 204.321 118.898C204.662 124.29 210.692 127.873 211.228 133.247C211.524 136.234 210.044 139.041 209.129 141.883C208.208 144.726 208.031 148.329 210.279 150.267C213.088 152.682 217.433 150.669 219.878 147.903C224.866 142.247 226.356 134.042 225.555 126.419C224.755 118.801 221.939 111.567 219.211 104.42C216.483 97.2729 213.795 89.9677 213.284 82.3271" fill="#263238"/>
<path d="M224.06 113.68C226.683 116.724 227.273 121.086 227.121 125.134C226.969 129.183 226.208 133.226 226.615 137.261C227.06 141.659 228.887 145.893 228.78 150.309C228.68 154.345 226.974 158.125 226.055 162.046C225.136 165.968 225.187 170.605 227.974 173.476C225.095 173.928 222.007 172.732 220.125 170.424C220.284 171.429 220.444 172.433 220.597 173.439C213.958 171.98 209.598 164.991 208.6 158.091C207.602 151.191 209.198 144.242 210.316 137.377C211.434 130.511 212.023 123.177 209.207 116.819" fill="#263238"/>
<path d="M174.295 43.4912C174.295 43.4912 174.324 43.3405 174.366 43.0471C174.413 42.753 174.436 42.3086 174.613 41.7594C174.894 40.6515 175.59 39.0386 177.099 37.4853C177.859 36.7294 178.795 35.9519 179.965 35.3786C181.122 34.7947 182.492 34.344 184.002 34.2564C185.505 34.1574 187.154 34.4698 188.66 35.321C190.176 36.1527 191.556 37.4304 192.737 38.984C193.929 40.5301 194.977 42.3026 196.085 44.1351C197.204 45.96 198.377 47.8887 199.953 49.5901C200.733 50.451 201.642 51.1978 202.599 51.9019C203.567 52.5925 204.591 53.2147 205.645 53.8272C207.745 55.0469 209.985 56.1821 211.977 57.7832C212.97 58.581 213.9 59.5031 214.608 60.6058C214.813 60.8628 214.935 61.1729 215.107 61.4584C215.278 61.7378 215.4 62.0479 215.516 62.3587C215.626 62.6703 215.782 62.97 215.858 63.2979L216.097 64.2743C216.604 66.9413 216.173 69.7359 215.599 72.4929C215.316 73.877 214.992 75.2662 214.732 76.6904C214.465 78.1094 214.238 79.5602 214.205 81.0363C214.152 81.7726 214.226 82.5179 214.27 83.2608C214.385 84.0011 214.488 84.7428 214.714 85.4633C215.136 86.9079 215.799 88.2737 216.561 89.5722C218.08 92.176 219.924 94.5068 221.189 97.1296C221.814 98.4326 222.282 99.8103 222.462 101.223C222.666 102.64 222.525 104.067 222.264 105.437C221.703 108.198 220.504 110.713 219.444 113.205C218.899 114.443 218.391 115.696 217.943 116.953C217.508 118.215 217.178 119.506 216.973 120.801C216.598 123.423 217.042 126.018 217.751 128.384C218.443 130.765 219.321 133 219.958 135.221C220.274 136.336 220.529 137.439 220.694 138.541C220.842 139.645 220.905 140.735 220.845 141.804C220.745 143.944 220.332 145.97 219.881 147.878C219.423 149.786 218.924 151.596 218.56 153.333C218.189 155.072 217.934 156.734 217.883 158.311C217.826 159.882 217.966 161.361 218.294 162.67C218.64 163.977 219.15 165.116 219.747 166.042C220.943 167.907 222.388 168.944 223.428 169.392C223.688 169.52 223.919 169.602 224.13 169.668C224.335 169.741 224.508 169.787 224.654 169.812C224.936 169.875 225.089 169.899 225.089 169.899C225.089 169.899 224.946 169.856 224.662 169.78C224.521 169.748 224.348 169.696 224.147 169.617C223.942 169.55 223.711 169.462 223.456 169.328C222.432 168.865 221.016 167.824 219.851 165.968C219.267 165.047 218.776 163.917 218.438 162.628C218.124 161.329 217.992 159.874 218.057 158.314C218.121 156.754 218.378 155.104 218.755 153.371C219.127 151.644 219.633 149.84 220.095 147.925C220.551 146.01 220.981 143.977 221.085 141.811C221.143 140.731 221.084 139.622 220.94 138.498C220.773 137.384 220.515 136.263 220.205 135.142C219.565 132.902 218.694 130.667 218.009 128.298C217.313 125.942 216.887 123.394 217.252 120.834C217.453 119.559 217.78 118.292 218.211 117.043C218.654 115.798 219.158 114.559 219.709 113.319C220.775 110.833 221.985 108.305 222.558 105.493C222.821 104.092 222.975 102.632 222.766 101.174C222.587 99.7176 222.103 98.3051 221.468 96.9786C220.186 94.315 218.336 91.9729 216.832 89.3979C216.083 88.11 215.43 86.7736 215.018 85.3646C214.794 84.6622 214.699 83.9379 214.586 83.2158C214.544 82.485 214.467 81.7585 214.521 81.0342C214.551 79.5831 214.774 78.145 215.036 76.7389C215.298 75.3267 215.622 73.9375 215.904 72.5473C216.477 69.7844 216.921 66.9453 216.393 64.2073L216.144 63.2014C216.068 62.8674 215.904 62.5563 215.793 62.2327C215.669 61.9105 215.547 61.5943 215.368 61.3036C215.195 61.012 215.067 60.6966 214.855 60.4283C214.125 59.2915 213.168 58.3482 212.156 57.5404C210.124 55.9135 207.874 54.7797 205.781 53.5713C204.734 52.9641 203.71 52.348 202.755 51.668C201.811 50.9746 200.909 50.2391 200.143 49.3949C198.584 47.7223 197.412 45.8117 196.288 43.9935C195.174 42.1618 194.114 40.3847 192.909 38.8279C191.709 37.2704 190.303 35.9715 188.756 35.1313C187.212 34.2663 185.522 33.959 183.997 34.0669C182.459 34.1703 181.078 34.6284 179.906 35.2326C178.719 35.8201 177.785 36.6158 177.021 37.3845C175.504 38.9695 174.823 40.6111 174.561 41.7289C174.391 42.2835 174.381 42.7325 174.34 43.0319C174.311 43.3298 174.299 43.4784 174.299 43.4784L174.295 43.4912Z" fill="white"/>
</svg>
