<svg width="301" height="273" viewBox="0 0 301 273" fill="none" xmlns="http://www.w3.org/2000/svg">
<path d="M67.5592 245.499C46.3057 233.421 27.9612 244.375 20.7067 252.5C19.54 253.167 15.3067 253.9 7.70669 251.5C0.106689 249.1 -0.459977 230.167 0.206689 221L1.70667 204.5V191C1.04 188.333 0.106665 181.9 1.70667 177.5C3.30666 173.1 8.37333 170 10.7067 169L20.7067 166C25.54 165 35.5067 162.5 36.7067 160.5C37.9067 158.5 43.8733 158.333 46.7067 158.5L60.2067 153.5L66.2067 151C66.7067 149.167 66.8067 145.4 63.2067 145L48.2067 142.5C46.04 142.833 40.4067 142.5 35.2067 138.5C33.7067 139.333 27.9067 139.6 16.7067 134C5.50667 128.4 7.37333 121.667 9.70667 119C10.7067 117.667 12.5067 114.2 11.7067 111C10.9067 107.8 8.70667 103.667 7.70667 102C7.04 99.6667 6.10667 94.3 7.70667 91.5C9.70667 88 14.2067 88 16.7067 86C18.7067 84.4 18.8733 81.6667 18.7067 80.5L21.2067 75L23.7067 70.5L27.2067 66.5L30.7067 65L36.2067 63.5H41.7067L48.2067 66.5C49.04 67 50.9067 67.7 51.7067 66.5C52.5067 65.3 54.7067 63 55.7067 62L58.7067 59.5L60.2067 58.5L63.2067 57.5H65.2067H67.7067H71.7067L75.2067 58.5L78.2067 59.5H79.7067L82.2067 61L84.2067 62H87.2067H92.7067L98.7067 59.5L102.707 57.5H105.707H106.707H110.207H113.207L121.5 55.5H128.5H133.5L140.5 57.5H145.5H148.5L154.5 59.5L161.5 61H164.5L170.5 62H202.5L207.5 59.5L212 58.5H221H228H247L255.5 57.5H267L287 59.5V62L293 63.5L301 75V80.5V86V91.5V102L293 111L287 119V126H279L267 134V138.5V145L279 153.5L293 158.5V160.5L301 177.5L297.5 181L293 191L287 204.5L279 210V216.5L267 221V226H255.5H247L239.5 232.5H228L221 238H212L197 245.5H175.5H170.5L161.5 249.5H152.207L144.207 252.5L133.207 254L124.707 251.5L115.707 246C114.54 245.667 110.707 245.1 104.707 245.5C97.2067 246 95.2067 248 88.7067 251.5C81.7318 255.256 74.4465 249.413 67.5592 245.499Z" fill="#FFF2E8"/>
<g clip-path="url(#clip0_68_4028)">
<path d="M133.695 107.664C133.695 107.664 133.22 107.767 132.364 107.945C126.429 109.213 108.781 112.857 103.394 114.354C103.394 114.354 103.224 195.687 103.434 203.272C103.643 210.856 98.4654 258.186 98.4654 258.186L195.269 269.365C195.269 269.365 206.3 171.424 208.017 158.972C210.247 142.869 214.096 127.128 214.096 127.128L197.949 118.582L179.383 105.907L133.706 107.656L133.695 107.664Z" fill="#E85053"/>
<g opacity="0.3">
<path d="M153.222 127.52C141.941 155.886 130.242 184.083 118.147 212.105C116.717 215.411 115.259 219.046 116.279 222.504C117.184 225.588 120.018 227.878 123.137 228.663C126.256 229.449 129.605 228.892 132.576 227.662C139.543 224.774 144.583 218.406 147.499 211.469C150.415 204.532 151.481 196.984 152.51 189.523C155.269 169.65 158.028 149.767 160.787 129.893L153.231 127.521L153.222 127.52Z" fill="#333333"/>
</g>
<path d="M103.393 114.363C103.393 114.363 88.4787 118.998 86.6802 144.295C85.4536 161.505 86.2543 177.468 86.2543 177.468L127.503 170.608L122.397 125.728L103.403 114.355L103.393 114.363Z" fill="#E85053"/>
<path d="M193.406 165.799L187.918 194.602L229.551 186.269C229.551 186.269 226.866 133.997 213.848 127.108L196.262 150.461L193.406 165.799Z" fill="#E85053"/>
<path d="M198.934 157.933C198.934 157.933 198.956 158.139 198.939 158.535C198.915 158.976 198.896 159.548 198.861 160.247C198.767 161.791 198.64 163.932 198.487 166.543C198.143 171.852 197.583 179.191 196.908 187.284C196.237 195.35 195.634 202.656 195.192 208.009C194.974 210.622 194.794 212.748 194.662 214.287C194.59 214.991 194.544 215.551 194.494 215.989C194.448 216.382 194.425 216.583 194.407 216.58C194.388 216.578 194.384 216.374 194.402 215.978C194.425 215.537 194.445 214.965 194.479 214.266C194.574 212.722 194.7 210.59 194.854 207.97C195.198 202.661 195.757 195.322 196.432 187.229C197.104 179.163 197.706 171.857 198.148 166.504C198.366 163.892 198.547 161.765 198.678 160.226C198.75 159.522 198.796 158.963 198.847 158.524C198.892 158.131 198.916 157.931 198.934 157.933Z" fill="#263238"/>
<path d="M120.963 136.547C120.963 136.547 120.789 136.203 120.547 135.565C120.281 134.821 119.94 133.912 119.554 132.84C118.695 130.557 117.505 127.366 115.481 124.245C113.457 121.124 110.841 118.878 108.7 117.734C106.563 116.561 105.021 116.337 105.051 116.239C105.054 116.211 105.439 116.247 106.107 116.407C106.785 116.559 107.741 116.883 108.855 117.437C111.085 118.527 113.811 120.795 115.873 123.985C117.936 127.166 119.092 130.409 119.864 132.728C120.249 133.892 120.528 134.85 120.721 135.511C120.904 136.17 120.991 136.541 120.962 136.556L120.963 136.547Z" fill="#263238"/>
<path d="M207.479 125.142C207.608 125.231 205.636 127.853 204.176 131.572C202.682 135.277 202.324 138.539 202.169 138.512C202.114 138.505 202.126 137.683 202.332 136.374C202.539 135.066 202.978 133.275 203.724 131.39C204.471 129.505 205.388 127.908 206.127 126.809C206.876 125.711 207.428 125.108 207.47 125.141L207.479 125.142Z" fill="#263238"/>
<path d="M116.765 127.345C116.765 127.345 116.62 127.319 116.366 127.345C116.114 127.363 115.743 127.523 115.414 127.883C115.066 128.241 114.809 128.776 114.608 129.474C114.495 129.813 114.387 130.189 114.185 130.573C113.993 130.949 113.697 131.34 113.244 131.566C112.308 132.041 111.129 131.645 110.315 130.904C109.468 130.121 109.051 128.999 108.502 127.964C108.228 127.442 107.905 126.951 107.459 126.557C107.022 126.165 106.473 125.851 105.893 125.812C105.323 125.774 104.74 126.077 104.388 126.555C104.034 127.05 103.875 127.708 103.752 128.369C103.628 129.039 103.54 129.723 103.379 130.39C103.219 131.056 102.982 131.741 102.503 132.278C102.393 132.423 102.251 132.527 102.108 132.64C101.975 132.754 101.816 132.846 101.65 132.911C101.328 133.049 100.969 133.11 100.626 133.107C99.941 133.093 99.3089 132.862 98.7719 132.532C97.6838 131.833 97.0804 130.791 96.5151 129.902C95.9611 128.996 95.4148 128.184 94.7372 127.624C94.079 127.058 93.2896 126.744 92.6157 126.796C91.9407 126.857 91.407 127.221 91.087 127.582C90.7659 127.952 90.6657 128.338 90.6646 128.588C90.6534 128.846 90.7027 128.981 90.6742 128.987C90.6742 128.987 90.5862 128.866 90.5629 128.586C90.5385 128.315 90.6166 127.879 90.9348 127.453C91.2601 127.047 91.8104 126.62 92.573 126.523C93.3437 126.436 94.2065 126.758 94.9358 127.351C95.6753 127.936 96.2733 128.782 96.8376 129.68C97.4131 130.561 98.0228 131.548 98.9922 132.15C99.4775 132.447 100.039 132.641 100.614 132.643C101.197 132.664 101.746 132.403 102.132 131.957C102.915 131.039 102.995 129.623 103.254 128.265C103.388 127.587 103.544 126.874 103.977 126.257C104.409 125.65 105.158 125.274 105.894 125.322C107.389 125.476 108.326 126.676 108.862 127.737C109.416 128.81 109.819 129.893 110.555 130.589C111.283 131.274 112.312 131.606 113.068 131.24C113.826 130.865 114.082 130.015 114.325 129.358C114.542 128.68 114.862 128.079 115.246 127.725C115.623 127.352 116.048 127.207 116.325 127.22C116.603 127.225 116.731 127.323 116.731 127.323L116.765 127.345Z" fill="#FAFAFA"/>
<path d="M123.321 141.752C123.321 141.752 123.337 141.939 123.279 142.275C123.212 142.619 123.034 143.116 122.62 143.642C122.216 144.169 121.553 144.694 120.635 145.005C119.748 145.3 118.512 145.315 117.501 144.596C116.49 143.952 115.709 142.835 114.504 142.344C113.284 141.824 111.82 142.534 110.883 143.657C109.909 144.784 109.385 146.352 108.369 147.753C107.853 148.452 107.169 149.067 106.329 149.433C105.506 149.81 104.424 149.86 103.585 149.338C102.755 148.816 102.267 147.973 101.904 147.182C101.533 146.38 101.245 145.579 100.863 144.869C100.493 144.141 99.9691 143.534 99.2863 143.261C98.6057 142.97 97.8318 143.084 97.1892 143.426C95.8757 144.117 95.0291 145.342 94.3385 146.503C93.6296 147.661 92.9809 148.78 92.2261 149.692C90.754 151.595 88.6834 152.253 87.3803 152.131C86.7077 152.09 86.2222 151.877 85.9267 151.704C85.7693 151.621 85.6781 151.527 85.5999 151.481C85.5319 151.427 85.4985 151.395 85.4995 151.386C85.5263 151.315 86.0887 151.908 87.382 151.955C88.6376 152.008 90.5779 151.352 91.9522 149.494C92.6682 148.596 93.2873 147.492 93.9892 146.314C94.6798 145.154 95.5379 143.828 96.9821 143.051C97.6859 142.66 98.6309 142.51 99.4447 142.854C100.279 143.182 100.881 143.908 101.267 144.665C101.671 145.425 101.967 146.236 102.324 146.999C102.681 147.762 103.133 148.508 103.817 148.939C104.518 149.372 105.384 149.342 106.127 149.011C106.879 148.691 107.509 148.134 107.983 147.486C108.95 146.182 109.484 144.605 110.534 143.385C111.058 142.788 111.691 142.288 112.418 142.011C113.129 141.723 113.966 141.708 114.638 141.989C115.321 142.263 115.842 142.73 116.313 143.154C116.782 143.588 117.216 144.008 117.68 144.33C118.595 145 119.698 145.008 120.552 144.764C121.408 144.502 122.057 144.021 122.465 143.541C123.302 142.555 123.248 141.744 123.31 141.769L123.321 141.752Z" fill="#FAFAFA"/>
<path d="M116.41 160.711C116.41 160.711 116.294 160.67 116.076 160.627C115.868 160.584 115.524 160.591 115.165 160.808C114.806 161.026 114.437 161.409 114.178 161.962C113.884 162.502 113.868 163.203 113.85 163.997C113.825 164.781 113.864 165.729 113.343 166.622C112.829 167.535 111.627 167.988 110.513 167.832C109.364 167.736 108.251 167.015 107.532 166.007C106.785 165.004 106.34 163.796 105.906 162.58L106.056 162.727C105.151 162.447 104.132 162.921 103.423 163.672C102.688 164.42 102.325 165.47 102.022 166.564C101.799 167.371 101.612 168.192 101.289 168.978C100.965 169.774 100.483 170.495 99.8449 171.042C99.2158 171.589 98.3412 171.932 97.5022 171.808C96.662 171.692 95.9679 171.196 95.4562 170.646C94.3993 169.515 93.9755 168.124 93.2908 167.064C92.648 165.963 91.6464 165.237 90.5887 165.077C89.5341 164.891 88.5377 165.165 87.8508 165.65C87.1538 166.143 86.7441 166.799 86.523 167.347C86.0849 168.49 86.2896 169.208 86.2255 169.201C86.2255 169.201 86.2023 169.161 86.1843 169.076C86.1663 168.99 86.1434 168.867 86.1349 168.7C86.1169 168.374 86.1372 167.876 86.3463 167.271C86.5542 166.675 86.9601 165.973 87.692 165.419C88.4148 164.863 89.4999 164.545 90.639 164.722C91.2045 164.806 91.7918 165.022 92.3144 165.397C92.8381 165.763 93.2705 166.276 93.6235 166.835C94.3578 167.947 94.795 169.302 95.7811 170.323C96.2604 170.831 96.8704 171.253 97.5661 171.334C98.2598 171.432 98.9784 171.154 99.5452 170.665C100.112 170.175 100.559 169.514 100.857 168.78C101.157 168.038 101.342 167.235 101.567 166.41C101.87 165.316 102.254 164.157 103.084 163.318C103.857 162.491 105.055 161.917 106.193 162.262L106.31 162.294L106.344 162.399C106.77 163.614 107.201 164.784 107.891 165.715C108.561 166.662 109.527 167.292 110.563 167.402C111.576 167.547 112.594 167.165 113.053 166.404C113.521 165.643 113.514 164.736 113.558 163.954C113.584 163.171 113.636 162.399 113.971 161.827C114.269 161.251 114.686 160.855 115.091 160.642C115.505 160.431 115.884 160.447 116.097 160.527C116.321 160.599 116.412 160.693 116.412 160.693L116.41 160.711Z" fill="#FAFAFA"/>
<path d="M227.996 169.682C227.996 169.682 227.819 169.689 227.524 169.757C227.219 169.824 226.788 170.024 226.393 170.469C226 170.904 225.638 171.547 225.351 172.347C225.074 173.139 224.856 174.141 224.246 175.088C223.951 175.554 223.534 176.033 222.929 176.287C222.334 176.542 221.579 176.492 220.982 176.118C220.385 175.744 219.98 175.151 219.671 174.532C219.362 173.914 219.127 173.22 218.917 172.548C218.705 171.894 218.372 171.245 217.936 170.686C217.497 170.145 216.865 169.674 216.186 169.771C215.491 169.839 214.978 170.428 214.763 171.162C214.531 171.893 214.474 172.701 214.369 173.531C214.149 175.199 213.466 176.851 212.168 177.895C210.9 178.914 209.054 179.229 207.699 178.434C206.371 177.642 205.671 176.395 204.831 175.475C204.033 174.512 202.962 173.908 201.922 174.074C200.894 174.215 200.081 174.833 199.553 175.467C199.015 176.108 198.705 176.785 198.474 177.341C198.03 178.456 197.843 179.11 197.807 179.096C197.789 179.094 197.827 178.923 197.9 178.616C197.982 178.311 198.099 177.853 198.305 177.275C198.519 176.708 198.805 176 199.349 175.304C199.891 174.627 200.733 173.928 201.885 173.746C202.453 173.654 203.081 173.755 203.644 174.023C204.216 174.293 204.693 174.737 205.13 175.213C206.004 176.156 206.737 177.36 207.919 178.052C209.093 178.734 210.729 178.46 211.875 177.537C213.041 176.598 213.682 175.062 213.894 173.467C213.996 172.665 214.046 171.828 214.316 171.017C214.446 170.616 214.641 170.213 214.957 169.888C215.273 169.564 215.695 169.363 216.137 169.312C217.067 169.207 217.822 169.821 218.292 170.412C218.777 171.033 219.115 171.72 219.339 172.43C219.547 173.121 219.76 173.765 220.044 174.362C220.328 174.951 220.703 175.484 221.195 175.8C221.678 176.115 222.295 176.159 222.791 175.957C223.296 175.765 223.678 175.347 223.959 174.916C224.553 174.032 224.783 173.087 225.091 172.271C225.407 171.456 225.808 170.799 226.248 170.359C226.69 169.911 227.166 169.725 227.496 169.68C227.826 169.635 227.985 169.699 227.985 169.699L227.996 169.682Z" fill="#FAFAFA"/>
<path d="M225.713 147.681C225.713 147.681 225.652 147.803 225.509 147.999C225.357 148.195 225.138 148.484 224.828 148.837C224.518 149.19 224.117 149.606 223.577 150.025C223.048 150.436 222.351 150.846 221.489 150.996C220.654 151.159 219.596 151.083 218.744 150.429C217.893 149.767 217.578 148.638 216.819 147.977C216.448 147.656 215.926 147.513 215.454 147.671C214.972 147.828 214.564 148.225 214.259 148.699C213.954 149.173 213.731 149.73 213.628 150.301C213.532 150.892 213.487 151.525 213.386 152.161C213.285 152.797 213.145 153.447 212.807 154.038C212.48 154.62 211.934 155.094 211.307 155.299C210.026 155.706 208.771 155.247 207.806 154.691C206.817 154.096 206.102 153.3 205.37 152.651C204.658 151.986 203.943 151.432 203.199 151.124C202.468 150.789 201.711 150.832 201.099 150.992C200.485 151.171 200.004 151.477 199.715 151.813C199.123 152.522 199.323 153.119 199.25 153.102C199.241 153.101 199.2 152.975 199.192 152.725C199.193 152.475 199.266 152.085 199.571 151.695C199.857 151.302 200.371 150.945 201.027 150.734C201.671 150.54 202.524 150.463 203.337 150.816C204.144 151.131 204.912 151.71 205.643 152.368C206.386 153.009 207.112 153.787 208.034 154.319C208.939 154.84 210.101 155.224 211.153 154.865C211.665 154.692 212.117 154.31 212.388 153.814C212.677 153.319 212.812 152.715 212.91 152.106C213.009 151.488 213.053 150.864 213.153 150.237C213.265 149.593 213.511 148.992 213.86 148.459C214.208 147.934 214.681 147.452 215.316 147.257C215.953 147.044 216.661 147.255 217.106 147.658C217.993 148.492 218.259 149.568 218.991 150.134C219.704 150.707 220.648 150.807 221.434 150.675C222.227 150.554 222.89 150.196 223.415 149.821C223.942 149.438 224.358 149.051 224.683 148.728C225.335 148.063 225.685 147.677 225.71 147.708L225.713 147.681Z" fill="#FAFAFA"/>
<path d="M196.245 197.526C196.245 197.526 196.125 197.762 195.707 198.01C195.297 198.268 194.533 198.374 193.664 198.107C193.225 197.973 192.766 197.772 192.301 197.459C191.836 197.146 191.409 196.745 190.929 196.329C190.456 195.923 189.942 195.475 189.329 195.154C188.719 194.815 187.983 194.684 187.248 194.858C186.513 195.042 185.884 195.589 185.363 196.241C184.832 196.902 184.381 197.673 183.899 198.478C183.417 199.274 182.928 200.134 182.211 200.884C181.836 201.238 181.423 201.598 180.909 201.798C180.647 201.897 180.385 201.996 180.106 202.001C179.965 202.013 179.824 202.033 179.685 202.036L179.263 201.987C178.708 201.895 178.153 201.637 177.744 201.247C177.304 200.882 176.978 200.409 176.669 199.948C176.065 198.999 175.599 197.973 175.014 197.008C174.437 196.062 173.709 195.136 172.661 194.728C171.622 194.331 170.413 194.515 169.371 195.024C168.311 195.531 167.439 196.328 166.713 197.234C165.978 198.139 165.346 199.112 164.655 200.032C163.965 200.952 163.186 201.833 162.241 202.465C161.313 203.107 160.223 203.546 159.102 203.536C157.99 203.528 156.925 203.026 156.202 202.295C155.461 201.561 154.967 200.699 154.515 199.879C153.629 198.231 152.876 196.636 151.653 195.662C151.06 195.168 150.368 194.893 149.683 194.805C148.996 194.726 148.334 194.834 147.747 195.016C146.563 195.389 145.711 196.105 145.177 196.793C144.642 197.49 144.435 198.151 144.355 198.604C144.302 199.061 144.292 199.309 144.274 199.307C144.274 199.307 144.262 199.25 144.257 199.129C144.262 199.01 144.236 198.831 144.264 198.593C144.317 198.128 144.5 197.427 145.032 196.683C145.553 195.948 146.429 195.188 147.665 194.766C148.282 194.56 148.974 194.436 149.718 194.504C150.46 194.58 151.233 194.873 151.868 195.4C153.178 196.43 153.971 198.076 154.861 199.688C155.315 200.499 155.814 201.324 156.498 201.986C157.171 202.666 158.115 203.089 159.107 203.093C160.108 203.097 161.111 202.686 161.988 202.084C162.874 201.483 163.61 200.652 164.28 199.748C164.959 198.845 165.593 197.854 166.35 196.924C167.089 195.991 168.024 195.118 169.172 194.575C170.293 194.029 171.645 193.806 172.844 194.268C174.052 194.741 174.823 195.774 175.424 196.75C176.024 197.745 176.49 198.77 177.061 199.688C177.625 200.586 178.365 201.411 179.352 201.544C180.325 201.712 181.264 201.293 181.92 200.591C182.594 199.901 183.079 199.069 183.57 198.274C184.061 197.479 184.523 196.69 185.093 196.007C185.654 195.331 186.345 194.726 187.185 194.527C188.014 194.336 188.848 194.506 189.49 194.886C190.144 195.248 190.657 195.705 191.128 196.13C191.598 196.554 192.014 196.972 192.443 197.272C192.871 197.58 193.32 197.789 193.731 197.929C194.561 198.21 195.274 198.145 195.679 197.932C196.092 197.73 196.237 197.516 196.253 197.536L196.245 197.526Z" fill="#FAFAFA"/>
<path d="M198.015 166.933C198.015 166.933 197.991 166.985 197.925 167.07C197.85 167.154 197.726 167.269 197.513 167.347C197.095 167.511 196.4 167.422 195.71 166.972C194.99 166.537 194.494 165.61 193.535 165.083C193.073 164.826 192.442 164.827 191.966 165.17C191.489 165.522 191.195 166.145 190.926 166.789C190.646 167.442 190.397 168.154 189.938 168.832C189.706 169.157 189.417 169.493 189.03 169.708C188.652 169.932 188.202 170.047 187.748 170.041C185.915 170.014 184.333 168.61 183.327 167.041C182.775 166.274 182.237 165.472 181.541 164.827C180.846 164.182 179.961 163.728 178.975 163.67C177.007 163.526 174.991 164.589 173.511 166.083C172.008 167.613 170.913 169.457 169.563 171.032C168.254 172.639 166.496 173.889 164.567 174.286C163.617 174.482 162.616 174.468 161.727 174.134C160.836 173.818 160.122 173.171 159.607 172.492C158.567 171.132 157.95 169.645 156.862 168.788C156.326 168.365 155.694 168.135 155.085 168.111C154.475 168.087 153.898 168.261 153.414 168.519C152.444 169.046 151.774 169.783 151.277 170.392C150.29 171.629 149.891 172.434 149.849 172.402C149.839 172.4 149.929 172.189 150.129 171.823C150.329 171.458 150.65 170.921 151.133 170.273C151.623 169.645 152.27 168.868 153.293 168.283C153.799 167.999 154.417 167.784 155.101 167.807C155.777 167.821 156.481 168.068 157.078 168.526C158.279 169.451 158.911 170.968 159.931 172.252C160.432 172.893 161.082 173.458 161.884 173.736C162.686 174.023 163.593 174.044 164.487 173.851C166.294 173.468 167.94 172.307 169.208 170.732C170.527 169.191 171.622 167.337 173.178 165.749C174.741 164.19 176.839 163.053 179.02 163.203C180.107 163.273 181.113 163.796 181.858 164.493C182.611 165.2 183.147 166.021 183.699 166.788C184.24 167.563 184.779 168.282 185.482 168.78C186.175 169.286 186.97 169.636 187.757 169.644C188.552 169.671 189.234 169.232 189.639 168.612C190.071 168.005 190.328 167.304 190.618 166.643C190.905 166.001 191.224 165.334 191.792 164.909C192.378 164.496 193.144 164.529 193.666 164.829C194.709 165.44 195.166 166.381 195.823 166.8C196.458 167.243 197.104 167.355 197.489 167.233C197.882 167.121 197.993 166.884 198.017 166.914L198.015 166.933Z" fill="#FAFAFA"/>
<path d="M202.121 135.471C202.121 135.471 201.992 135.308 201.69 135.107C201.39 134.896 200.845 134.713 200.156 134.818C199.459 134.904 198.661 135.312 198.093 136.135C197.49 136.935 197.114 138.021 196.587 139.209C196.315 139.798 195.985 140.407 195.495 140.952C195.024 141.499 194.332 141.947 193.536 142.096C192.74 142.235 191.896 142.073 191.135 141.754C190.366 141.424 189.65 140.962 188.989 140.414C187.685 139.338 186.453 137.956 184.75 137.444C183.905 137.208 182.983 137.24 182.129 137.567C181.267 137.875 180.482 138.414 179.759 139.043C178.298 140.29 177.222 141.896 175.832 143.17C175.145 143.813 174.402 144.384 173.577 144.779C172.751 145.183 171.829 145.382 170.937 145.307C169.12 145.134 167.749 143.995 166.683 142.946C165.611 141.86 164.736 140.769 163.773 139.945C162.82 139.123 161.781 138.558 160.8 138.454C159.82 138.35 158.949 138.583 158.351 138.94C157.736 139.285 157.412 139.757 157.254 140.081C157.086 140.413 157.072 140.615 157.035 140.611C157.035 140.611 157.022 140.406 157.166 140.043C157.309 139.689 157.619 139.17 158.258 138.781C158.87 138.38 159.783 138.106 160.831 138.19C161.898 138.267 162.999 138.856 163.998 139.684C165.006 140.513 165.909 141.617 166.966 142.664C168.017 143.683 169.343 144.734 170.97 144.867C172.605 145.009 174.215 144.075 175.51 142.827C176.848 141.603 177.916 139.987 179.449 138.683C180.201 138.03 181.037 137.46 181.976 137.124C182.907 136.769 183.95 136.732 184.885 136.997C186.775 137.576 188.008 139.033 189.279 140.077C190.53 141.129 192.042 141.932 193.468 141.718C194.169 141.595 194.769 141.22 195.216 140.717C195.672 140.223 195.999 139.641 196.269 139.071C196.8 137.929 197.217 136.811 197.869 135.979C198.195 135.573 198.559 135.226 198.956 135.004C199.353 134.781 199.764 134.671 200.13 134.639C200.872 134.559 201.448 134.792 201.744 135.039C202.05 135.287 202.119 135.489 202.119 135.489L202.121 135.471Z" fill="#FAFAFA"/>
<path d="M199.127 120.106C199.127 120.106 199.113 120.225 199.033 120.437C198.953 120.65 198.825 120.959 198.595 121.34C198.368 121.702 198.053 122.175 197.478 122.497C196.919 122.84 195.971 122.777 195.407 122.119C194.848 121.49 194.622 120.641 194.239 119.856C194.053 119.464 193.819 119.076 193.479 118.806C193.14 118.526 192.709 118.328 192.244 118.256C191.299 118.082 190.259 118.332 189.408 118.956C188.539 119.568 187.834 120.458 187.203 121.422C186.877 121.912 186.532 122.409 186.069 122.809C185.623 123.211 184.958 123.504 184.317 123.356C183.673 123.226 183.206 122.774 182.898 122.304C182.583 121.823 182.422 121.286 182.313 120.783C182.094 119.786 181.983 118.82 181.426 118.182C181.157 117.864 180.824 117.613 180.463 117.525C180.102 117.437 179.741 117.516 179.449 117.713C178.873 118.119 178.574 118.778 178.299 119.311C178.032 119.863 177.692 120.314 177.353 120.599C177.013 120.893 176.657 121 176.416 121C176.175 121 176.061 120.94 176.071 120.932C176.058 120.885 176.614 121.051 177.23 120.455C177.533 120.166 177.814 119.736 178.063 119.191C178.33 118.648 178.578 117.946 179.268 117.433C179.602 117.185 180.09 117.056 180.551 117.165C181.013 117.265 181.424 117.562 181.735 117.922C182.399 118.674 182.527 119.734 182.751 120.686C182.862 121.171 183.012 121.641 183.289 122.053C183.558 122.454 183.953 122.814 184.416 122.895C184.887 122.996 185.364 122.801 185.758 122.449C186.16 122.097 186.482 121.635 186.807 121.154C187.458 120.174 188.189 119.231 189.147 118.565C190.079 117.886 191.281 117.599 192.341 117.814C192.868 117.912 193.38 118.137 193.777 118.479C194.182 118.822 194.437 119.268 194.621 119.687C195.006 120.528 195.217 121.348 195.682 121.901C196.139 122.444 196.881 122.53 197.375 122.263C197.887 122.008 198.214 121.583 198.458 121.241C198.929 120.536 199.102 120.084 199.145 120.108L199.127 120.106Z" fill="#FAFAFA"/>
<path d="M139.429 113.286C139.429 113.286 139.458 113.438 139.471 113.726C139.475 114.014 139.48 114.449 139.435 114.999C139.39 115.549 139.292 116.241 138.966 116.972C138.658 117.713 137.977 118.468 136.99 118.816C136.507 118.983 135.916 119.044 135.356 118.831C134.794 118.637 134.348 118.16 134.046 117.644C133.735 117.126 133.532 116.548 133.269 116.018C133.006 115.478 132.656 114.975 132.13 114.711C131.061 114.171 129.56 114.636 128.821 115.735C128.434 116.274 128.173 116.928 128.028 117.615C127.875 118.301 127.865 119.03 127.815 119.784C127.765 120.537 127.694 121.315 127.389 122.029C127.103 122.737 126.6 123.4 125.883 123.743C125.166 124.086 124.314 123.997 123.666 123.663C123.008 123.337 122.488 122.852 122.066 122.331C121.244 121.255 120.794 120.093 120.078 119.223C119.402 118.331 118.419 117.847 117.468 117.802C116.52 117.739 115.668 118.048 115.086 118.508C114.494 118.976 114.149 119.557 113.952 120.052C113.576 121.064 113.734 121.702 113.669 121.704C113.66 121.703 113.611 121.558 113.59 121.26C113.577 120.971 113.592 120.519 113.774 119.985C113.947 119.45 114.289 118.823 114.916 118.294C115.534 117.764 116.456 117.408 117.49 117.453C118.518 117.47 119.652 118.008 120.386 118.963C121.161 119.885 121.637 121.069 122.405 122.046C122.804 122.527 123.282 122.971 123.853 123.25C124.423 123.528 125.094 123.587 125.664 123.311C126.234 123.034 126.67 122.474 126.929 121.837C127.197 121.202 127.271 120.48 127.319 119.745C127.367 118.279 127.507 116.666 128.428 115.44C129.286 114.197 131.012 113.629 132.317 114.298C132.974 114.633 133.357 115.251 133.627 115.809C133.904 116.378 134.099 116.946 134.378 117.423C134.646 117.907 135.019 118.293 135.472 118.465C135.925 118.647 136.429 118.613 136.864 118.469C137.76 118.174 138.393 117.516 138.704 116.83C139.043 116.148 139.156 115.485 139.228 114.947C139.353 113.861 139.368 113.252 139.404 113.256L139.429 113.286Z" fill="#FAFAFA"/>
<path d="M200.604 13.7992C194.56 11.7502 188.035 17.0026 181.816 15.5904C178.037 14.7284 175.261 11.6131 171.928 9.62732C166.956 6.65632 159.816 5.97998 154.569 8.43721C149.323 10.8944 145.913 13.5915 145.031 19.3012C140.414 16.4638 132.385 22.1256 129.547 27.7391C126.7 33.3515 127.196 39.2665 128.526 45.4168C130.819 56.0091 135.225 66.142 141.404 75.0546C141.953 75.8398 142.834 76.7281 143.722 76.3495C144.336 76.0873 144.552 75.3441 144.674 74.6919C145.742 69.1333 145.206 63.4171 144.893 57.773C144.581 52.1197 144.519 46.3103 146.459 40.9912C148.408 35.6823 152.763 30.9103 158.362 29.9837C162.494 29.3041 166.723 30.7641 170.306 32.9175C173.898 35.072 177.021 37.9128 180.423 40.3415C183.825 42.7795 187.675 44.8621 191.852 45.1685C196.028 45.4749 200.571 43.649 202.476 39.9267C204.372 36.2034 202.541 30.7726 198.472 29.7753C202.246 29.5449 205.624 26.3999 206.129 22.6733C206.625 18.9364 204.193 15.0187 200.613 13.8003L200.604 13.7992Z" fill="#263238"/>
<path d="M178.821 111.098L178.595 98.9955C178.595 98.9955 194.652 96.4355 194.768 80.4115C194.826 72.6726 193.643 56.7301 192.414 42.3091C191.087 26.8034 178.045 14.9051 162.442 14.9727L160.892 14.9789C144.185 16.0202 135.748 30.7593 137.268 47.3979L139.157 112.024C139.478 122.898 148.534 131.486 159.434 131.245C170.353 131.007 179.018 122.004 178.82 111.107L178.821 111.098Z" fill="#FFBE9D"/>
<path d="M178.614 98.9885C178.614 98.9885 168.468 99.8527 157.646 93.1432C157.646 93.1432 162.654 104.65 178.673 103.141L178.614 98.9885Z" fill="#EB996E"/>
<path d="M186.435 51.3447C186.485 52.5998 185.507 53.6806 184.236 53.756C182.975 53.8325 181.907 52.8763 181.859 51.6121C181.809 50.3571 182.787 49.2763 184.048 49.1998C185.309 49.1233 186.376 50.0886 186.426 51.3437L186.435 51.3447Z" fill="#263238"/>
<path d="M188.881 51.2108C188.596 51.511 186.851 50.236 184.382 50.247C181.916 50.2307 180.109 51.5026 179.837 51.2029C179.704 51.0672 179.989 50.5264 180.779 49.9513C181.551 49.3742 182.877 48.8147 184.417 48.8167C185.957 48.8187 187.247 49.3748 187.997 49.9519C188.756 50.53 189.018 51.0693 188.882 51.2016L188.881 51.2108Z" fill="#263238"/>
<path d="M163.03 50.6133C163.086 51.8968 162.097 52.9948 160.835 53.0713C159.574 53.1477 158.51 52.1642 158.454 50.8806C158.398 49.5971 159.387 48.4991 160.649 48.4226C161.91 48.3462 162.984 49.3308 163.03 50.6133Z" fill="#263238"/>
<path d="M165.289 50.4114C165.004 50.7116 163.259 49.4366 160.789 49.4568C158.323 49.4404 156.516 50.7124 156.244 50.4127C156.111 50.277 156.396 49.7362 157.186 49.1611C157.958 48.5839 159.284 48.0245 160.815 48.0254C162.355 48.0274 163.645 48.5836 164.395 49.1606C165.154 49.7387 165.416 50.278 165.28 50.4104L165.289 50.4114Z" fill="#263238"/>
<path d="M173.79 68.9479C173.778 68.8078 175.312 68.5407 177.799 68.2079C178.428 68.1417 179.027 68.0165 179.133 67.5845C179.278 67.1294 179.013 66.451 178.699 65.7206C178.095 64.198 177.472 62.6084 176.811 60.9404C174.192 54.1324 172.287 48.5358 172.56 48.4284C172.832 48.321 175.182 53.7562 177.81 60.5652C178.441 62.2483 179.045 63.845 179.62 65.3736C179.862 66.0863 180.279 66.8933 179.957 67.837C179.791 68.3084 179.325 68.6524 178.922 68.7633C178.518 68.8924 178.165 68.8979 177.856 68.9178C175.353 69.0637 173.802 69.0789 173.791 68.9388L173.79 68.9479Z" fill="#263238"/>
<path d="M166.53 70.6822C166.932 70.6546 166.947 73.3309 169.253 75.2165C171.548 77.1103 174.404 76.8016 174.426 77.1742C174.462 77.345 173.791 77.6932 172.59 77.7303C171.406 77.7787 169.678 77.4033 168.271 76.2506C166.865 75.0889 166.254 73.547 166.159 72.444C166.056 71.3308 166.346 70.6611 166.53 70.6822Z" fill="#263238"/>
<path d="M165.346 39.1558C165.102 39.8216 162.642 39.519 159.743 39.8783C156.841 40.1818 154.507 41.0321 154.121 40.4414C153.95 40.1534 154.357 39.5248 155.294 38.8742C156.223 38.2226 157.714 37.599 159.453 37.4019C161.192 37.2047 162.785 37.4719 163.84 37.8991C164.905 38.3182 165.447 38.8435 165.336 39.1638L165.346 39.1558Z" fill="#263238"/>
<path d="M188.062 43.0374C187.627 43.5979 185.93 43.0226 183.882 43.0081C181.842 42.9206 180.108 43.3959 179.711 42.8134C179.539 42.5344 179.808 41.9732 180.556 41.4396C181.295 40.9049 182.542 40.4751 183.948 40.5079C185.353 40.5499 186.575 41.0519 187.29 41.6156C188.012 42.1895 188.252 42.7631 188.062 43.0374Z" fill="#263238"/>
<path d="M138.644 59.2631C138.37 59.1482 127.595 56.0532 128 67.0104C128.404 77.9677 139.343 75.3071 139.351 74.9934C139.36 74.6797 138.653 59.2642 138.653 59.2642L138.644 59.2631Z" fill="#FFBE9D"/>
<path d="M135.837 70.96C135.785 70.9263 135.654 71.0962 135.329 71.2623C135.023 71.4213 134.481 71.5345 133.9 71.3471C132.729 70.962 131.675 69.1653 131.551 67.1891C131.489 66.1919 131.664 65.2404 131.989 64.4358C132.297 63.6199 132.789 63.0475 133.37 62.9202C133.945 62.7645 134.37 63.1005 134.52 63.4047C134.68 63.71 134.618 63.9249 134.672 63.9404C134.706 63.9629 134.898 63.7445 134.792 63.2973C134.743 63.0788 134.605 62.8315 134.332 62.6241C134.059 62.4168 133.671 62.3257 133.265 62.3807C132.42 62.4682 131.687 63.2719 131.327 64.1464C130.919 65.0248 130.702 66.1009 130.777 67.2201C130.931 69.4218 132.135 71.4487 133.74 71.8469C134.518 72.02 135.16 71.761 135.479 71.4924C135.809 71.2066 135.855 70.9621 135.821 70.9396L135.837 70.96Z" fill="#EB996E"/>
<path d="M195.799 38.9428C188.733 40.8476 180.771 39.0954 175.163 34.3946C171.238 31.1096 168.205 26.3637 163.302 24.8813C160.004 23.8804 156.339 24.6048 153.334 26.2844C150.32 27.9631 147.892 30.5144 145.804 33.2531C148.947 41.3802 146.904 50.4816 144.832 58.9412C144.603 59.8772 144.33 60.8821 143.565 61.4786C142.272 62.4767 140.32 61.7053 139.185 60.5286C137.361 58.6431 136.65 55.9697 136.167 53.3969C135.082 47.5341 134.903 41.452 136.188 35.6223C137.473 29.8017 140.267 24.2388 144.567 20.0991C149.942 14.9267 157.499 12.2273 164.968 12.3031C172.435 12.388 179.77 15.1505 185.757 19.6176C188.533 21.6871 191.092 24.1943 192.537 27.341" fill="#263238"/>
<path d="M205.235 17.6376C205.235 17.6376 205.299 17.9689 205.144 18.5895C204.991 19.1919 204.563 20.0864 203.621 20.8567C202.686 21.6372 201.225 22.1625 199.527 22.244C198.678 22.2848 197.762 22.2624 196.799 22.0864C195.846 21.9023 194.83 21.5444 193.998 20.8005C193.181 20.0769 192.52 18.9734 192.61 17.7159C192.692 16.4391 193.708 15.3534 194.928 14.9113C195.54 14.6765 196.219 14.5791 196.907 14.6493C197.584 14.7275 198.264 15.0281 198.795 15.4873C199.897 16.3919 200.441 17.8614 200.45 19.3153C200.465 20.7884 199.803 22.2666 198.741 23.3471C197.678 24.4366 196.282 25.2008 194.768 25.6182C191.729 26.4703 188.371 25.9067 185.382 24.6362C182.354 23.3797 179.716 21.5574 177.239 19.7908C174.762 18.0241 172.35 16.3389 169.855 15.1346C167.37 13.9131 164.755 13.2595 162.297 13.3365C159.84 13.4045 157.598 14.1079 155.735 15.0497C151.979 16.9756 149.782 19.7666 148.484 21.6896C147.833 22.6694 147.387 23.4785 147.102 24.0194C146.807 24.5683 146.661 24.8661 146.644 24.8548C146.644 24.8548 146.653 24.7726 146.717 24.6227C146.781 24.4727 146.862 24.2507 146.996 23.9701C147.257 23.3987 147.667 22.5763 148.304 21.567C149.561 19.593 151.738 16.7258 155.562 14.7057C157.457 13.7215 159.75 12.9777 162.285 12.8817C164.819 12.7856 167.526 13.4498 170.074 14.6787C172.633 15.8996 175.071 17.5971 177.559 19.3557C180.037 21.1132 182.641 22.9038 185.607 24.1347C188.535 25.3704 191.748 25.8988 194.642 25.1039C196.069 24.7135 197.386 23.9957 198.374 22.99C199.371 21.9855 199.969 20.6664 199.957 19.3231C199.961 18.0003 199.457 16.665 198.491 15.8687C197.559 15.0208 196.188 14.9272 195.091 15.3465C193.987 15.7466 193.11 16.6816 193.031 17.7645C192.943 18.8464 193.512 19.8652 194.26 20.5346C195.017 21.2143 195.968 21.5739 196.874 21.7618C197.79 21.9417 198.685 21.9803 199.514 21.9557C201.171 21.9064 202.58 21.4306 203.489 20.7119C204.416 19.9953 204.856 19.1578 205.043 18.5779C205.232 17.9889 205.215 17.6538 205.242 17.657L205.235 17.6376Z" fill="#455A64"/>
<path d="M127.641 37.1801C127.682 37.0646 128.877 37.8041 131.003 38.0311C132.058 38.1344 133.338 38.0509 134.685 37.6327C136.03 37.2327 137.438 36.5255 138.793 35.6362C141.501 33.8019 143.01 31.0981 143.659 29.0909C144.321 27.0574 144.265 25.6907 144.376 25.6942C144.413 25.6984 144.449 26.0265 144.433 26.6447C144.418 27.2538 144.316 28.1396 144.026 29.2073C143.459 31.3073 141.941 34.1674 139.103 36.0884C137.697 37.018 136.243 37.72 134.825 38.1115C133.414 38.5223 132.054 38.5689 130.959 38.4055C129.856 38.241 129.011 37.9214 128.467 37.655C127.913 37.3875 127.638 37.1984 127.652 37.1629L127.641 37.1801Z" fill="#455A64"/>
<path d="M128.163 45.1064C128.175 45.006 129.46 45.284 131.534 45.1625C133.588 45.048 136.464 44.3992 139.087 42.6569C141.71 40.9055 143.416 38.5021 144.307 36.6523C145.217 34.7956 145.45 33.5083 145.549 33.5291C145.586 33.5333 145.557 33.8631 145.444 34.4423C145.321 35.0204 145.087 35.8447 144.669 36.8144C143.852 38.7467 142.13 41.2871 139.407 43.101C136.674 44.9139 133.672 45.5205 131.565 45.5362C130.505 45.5527 129.645 45.4533 129.064 45.34C128.483 45.2267 128.17 45.1258 128.173 45.0984L128.163 45.1064Z" fill="#455A64"/>
<path d="M156.591 61.2245C156.449 61.2543 156.294 61.1439 156.267 60.9834C156.23 60.8218 156.331 60.6669 156.474 60.6371C156.616 60.6073 156.77 60.7177 156.798 60.8782C156.835 61.0398 156.743 61.1957 156.591 61.2245Z" fill="#EB996E"/>
<path d="M161.299 60.1394C161.157 60.1692 161.005 60.0406 160.961 59.8597C160.926 59.6798 161.011 59.5046 161.163 59.4758C161.305 59.446 161.457 59.5747 161.501 59.7556C161.536 59.9354 161.451 60.1107 161.299 60.1394Z" fill="#EB996E"/>
<path d="M164.473 60.0524C164.322 60.072 164.176 59.8886 164.149 59.6448C164.121 59.4011 164.211 59.1893 164.362 59.1697C164.512 59.1501 164.658 59.3335 164.686 59.5772C164.713 59.821 164.624 60.0328 164.473 60.0524Z" fill="#EB996E"/>
<path d="M158.923 64.1682C158.775 64.1695 158.654 64.0908 158.646 63.9974C158.647 63.905 158.768 63.8263 158.916 63.825C159.065 63.8236 159.186 63.9024 159.194 63.9958C159.192 64.0882 159.072 64.1668 158.923 64.1682Z" fill="#EB996E"/>
<path d="M163.243 63.1493C163.094 63.1598 162.96 63.0333 162.942 62.8647C162.925 62.6961 163.035 62.5423 163.185 62.5318C163.334 62.5213 163.468 62.6478 163.486 62.8164C163.503 62.9851 163.393 63.1389 163.243 63.1493Z" fill="#EB996E"/>
<path d="M185.735 60.3792C185.593 60.409 185.438 60.2986 185.41 60.1381C185.375 59.9674 185.467 59.8114 185.618 59.7827C185.77 59.7539 185.915 59.8632 185.943 60.0238C185.979 60.1945 185.887 60.3504 185.735 60.3792Z" fill="#EB996E"/>
<path d="M188.953 60.066C188.803 60.0856 188.671 59.9408 188.646 59.7529C188.631 59.566 188.733 59.402 188.884 59.3824C189.035 59.3628 189.166 59.5076 189.191 59.6955C189.206 59.8824 189.104 60.0464 188.953 60.066Z" fill="#EB996E"/>
<path d="M182.895 60.4677C182.753 60.4975 182.605 60.4156 182.582 60.2926C182.56 60.1606 182.649 60.032 182.801 60.0033C182.943 59.9735 183.091 60.0554 183.114 60.1783C183.136 60.3104 183.047 60.4389 182.895 60.4677Z" fill="#EB996E"/>
<path d="M185.301 63.6604C185.164 63.7187 184.996 63.6438 184.922 63.4871C184.847 63.3304 184.905 63.152 185.041 63.0938C185.178 63.0355 185.346 63.1104 185.42 63.2671C185.495 63.4238 185.437 63.6022 185.301 63.6604Z" fill="#EB996E"/>
<path d="M188.036 63.1065C187.892 63.0713 187.796 62.9399 187.829 62.8141C187.862 62.6884 188.009 62.6221 188.152 62.6664C188.296 62.7016 188.393 62.833 188.36 62.9587C188.326 63.0844 188.18 63.1508 188.036 63.1065Z" fill="#EB996E"/>
<path d="M196.094 191.206L194.186 214.88C194.186 214.88 124.088 220.509 114.749 224.021C105.41 227.533 101.731 227.82 100.754 240.941L210.296 253.396C210.296 253.396 224.372 249.913 225.799 235.225C227.226 220.537 227.621 184.899 227.621 184.899L196.094 191.206Z" fill="#FFBE9D"/>
<path d="M112.054 242.616L121.25 242.836L132.329 223.136C130.946 222.736 102.14 215.032 100.356 215.298L90.4487 239.399C90.4487 239.399 111.423 242.543 112.054 242.616Z" fill="#FFBE9D"/>
<path d="M92.0512 239.982C92.0512 239.982 92.234 240.087 92.5238 240.148C94.9101 240.692 106.166 241.307 106.166 241.307C106.846 239.923 106.374 235.491 105.012 235.075C103.65 234.659 91.6557 234.088 91.6557 234.088C91.6557 234.088 89.7505 234.118 88.9208 237.205C88.4043 239.108 92.0318 239.989 92.0318 239.989L92.0512 239.982Z" fill="#FFBE9D"/>
<path d="M89.002 233.208C89.002 233.208 89.1848 233.312 89.4746 233.373C91.8609 233.917 102.449 235.02 103.054 233.794C103.733 232.41 103.334 228.718 101.972 228.302C100.61 227.885 88.6157 227.315 88.6157 227.315C88.6157 227.315 86.7104 227.344 85.8808 230.432C85.3734 232.335 88.9918 233.216 88.9918 233.216L89.002 233.208Z" fill="#FFBE9D"/>
<path d="M87.8494 226.8C87.8494 226.8 88.0322 226.905 88.322 226.966C90.7083 227.51 101.296 228.612 101.901 227.387C102.581 226.003 102.181 222.311 100.819 221.894C99.4573 221.478 87.4631 220.907 87.4631 220.907C87.4631 220.907 85.5579 220.937 84.7282 224.025C84.2208 225.928 87.8392 226.808 87.8392 226.808L87.8494 226.8Z" fill="#FFBE9D"/>
<path d="M86.7933 220.441C86.7933 220.441 86.976 220.546 87.2658 220.607C89.6521 221.151 100.24 222.253 100.845 221.027C101.524 219.644 101.125 215.951 99.7631 215.535C98.4011 215.119 86.4069 214.548 86.4069 214.548C86.4069 214.548 84.5017 214.578 83.672 217.665C83.1545 219.577 86.7831 220.449 86.7831 220.449L86.7933 220.441Z" fill="#FFBE9D"/>
<path d="M101.934 234.655C101.895 234.835 99.5725 234.78 96.7341 234.536C93.8958 234.291 91.6257 233.946 91.6651 233.765C91.7045 233.585 94.0266 233.64 96.865 233.884C99.7033 234.129 101.964 234.473 101.934 234.655Z" fill="#EB996E"/>
<path d="M102.715 228.452C102.694 228.635 99.3963 228.513 95.3351 228.174C91.2738 227.834 87.9925 227.409 88.0136 227.227C88.0347 227.044 91.3325 227.166 95.3937 227.505C99.455 227.844 102.736 228.27 102.715 228.452Z" fill="#EB996E"/>
<g opacity="0.78">
<path d="M102.941 222.075C102.92 222.257 99.6225 222.135 95.5613 221.796C91.5 221.457 88.2187 221.032 88.2398 220.849C88.2609 220.666 91.5587 220.788 95.6199 221.127C99.6812 221.467 102.962 221.892 102.941 222.075Z" fill="#EB996E"/>
</g>
<path d="M120.357 220.125C120.357 220.125 101.43 208.972 100.037 210.107C98.6447 211.242 96.2476 215.129 96.2476 215.129L120.357 220.125Z" fill="#FFBE9D"/>
<path d="M207.135 237.225C207.049 237.242 206.805 235.743 206.118 233.415C205.78 232.247 205.288 230.885 204.661 229.406C204.015 227.934 203.223 226.353 202.265 224.771C201.287 223.196 200.246 221.771 199.23 220.524C198.194 219.294 197.212 218.237 196.326 217.394C194.563 215.71 193.34 214.81 193.394 214.742C193.416 214.717 193.736 214.92 194.293 215.318C194.86 215.707 195.642 216.325 196.559 217.144C197.486 217.954 198.505 219.006 199.569 220.24C200.612 221.489 201.689 222.927 202.674 224.522C203.647 226.133 204.436 227.742 205.07 229.24C205.675 230.745 206.145 232.141 206.443 233.332C206.751 234.524 206.946 235.491 207.033 236.176C207.131 236.854 207.163 237.228 207.134 237.234L207.135 237.225Z" fill="#EB996E"/>
<path d="M139.721 116.939L112.32 173.149L88.352 177.136C88.352 177.136 92.6643 213.623 100.516 220.989C103.186 223.491 107.685 226.389 112.612 226.615C121.961 227.038 133.114 221.718 138.13 213.071C142.589 205.387 161.662 122.794 161.662 122.794L139.72 116.948L139.721 116.939Z" fill="#FFBE9D"/>
<path d="M161.092 125.246L163.939 111.11L161.939 99.2655L161.164 94.734L163.377 97.5807L168.517 93.2417C168.517 93.2417 168.032 84.4222 166.787 84.2784C166.009 84.1886 163.649 84.7026 161.998 85.1042C161.015 85.3424 160.287 85.536 160.287 85.536L156.187 87.0614L160.744 81.5817C160.744 81.5817 164.353 85.3576 166.726 82.7167C168.546 80.6966 163.293 75.0928 161.306 73.0959C160.849 72.6359 160.216 72.4148 159.571 72.4605L157.257 72.656C157.476 71.3951 156.291 69.5277 154.299 69.2699C151.347 68.8828 149.669 71.3634 149.669 71.3634L147.239 71.5178C145.573 71.3254 143.971 72.1861 143.213 73.6811L136.336 87.2863L139.72 116.948" fill="#FFBE9D"/>
<path d="M139.721 116.939C139.721 116.939 139.686 116.759 139.634 116.41C139.585 116.034 139.514 115.517 139.434 114.851C139.26 113.461 139.019 111.453 138.701 108.899C138.093 103.721 137.213 96.3178 136.149 87.3017L136.155 87.2469L136.161 87.1921C137.522 84.4897 138.955 81.6383 140.461 78.6381C141.218 77.1431 141.99 75.6034 142.773 74.0375C143.125 73.2452 143.694 72.4132 144.511 71.9246C145.312 71.4156 146.294 71.1866 147.255 71.2976L147.219 71.2933C147.975 71.2511 148.806 71.1991 149.648 71.139L149.479 71.2397C149.996 70.5406 150.664 69.9791 151.445 69.5604C152.224 69.1599 153.13 68.9498 154.03 69.026C154.935 69.0565 155.853 69.4679 156.5 70.1256C157.148 70.7834 157.628 71.6902 157.492 72.7018L157.236 72.4316C157.816 72.3875 158.398 72.3343 158.988 72.2822C159.286 72.2704 159.561 72.2189 159.903 72.2306C160.226 72.2493 160.55 72.333 160.848 72.4877C161.138 72.623 161.416 72.868 161.605 73.0749L162.236 73.7215C162.649 74.1579 163.063 74.5943 163.465 75.0479C164.269 75.9552 165.042 76.8958 165.74 77.9203C166.42 78.9427 167.122 80.0139 167.321 81.3418C167.361 81.7166 167.341 82.1307 167.16 82.4984C166.976 82.8843 166.663 83.1073 166.384 83.3527C165.773 83.8189 164.956 83.9837 164.228 83.8626C162.747 83.599 161.578 82.7145 160.566 81.7555L160.92 81.7409C159.37 83.5978 157.851 85.4213 156.354 87.2195L156.091 86.8467C157.477 86.3313 158.844 85.8228 160.201 85.3224L160.21 85.3234L160.22 85.3154C161.586 84.9734 162.934 84.6293 164.281 84.3685C164.954 84.2426 165.629 84.1076 166.33 84.0591C166.516 84.0528 166.659 84.023 166.92 84.0902C167.185 84.2041 167.293 84.3924 167.386 84.5512C167.562 84.8769 167.664 85.2032 167.755 85.5377C168.398 88.166 168.545 90.7464 168.73 93.2386L168.737 93.3412L168.654 93.4149C166.866 94.9205 165.152 96.3512 163.507 97.7437L163.342 97.882L163.213 97.719C162.445 96.7327 161.719 95.7883 161.001 94.8632L161.342 94.7175C162.391 101.057 163.313 106.568 164.061 111.097L164.058 111.124L164.055 111.151C163.133 115.598 162.393 119.121 161.888 121.562C161.631 122.744 161.432 123.665 161.292 124.315C161.22 124.613 161.175 124.848 161.127 125.018C161.09 125.181 161.063 125.252 161.063 125.252C161.063 125.252 161.073 125.169 161.092 125.005C161.122 124.823 161.168 124.588 161.221 124.289C161.342 123.637 161.514 122.712 161.745 121.518C162.222 119.074 162.908 115.544 163.785 111.083L163.779 111.129C163.004 106.597 162.052 101.102 160.956 94.7655L160.83 94.0106L161.299 94.6107C162.019 95.5267 162.754 96.4722 163.521 97.4585L163.237 97.4257C164.882 96.0332 166.589 94.5923 168.368 93.0857L168.292 93.262C168.112 90.7982 167.94 88.1964 167.315 85.6534C167.23 85.3474 167.127 85.0302 166.981 84.7727C166.913 84.6353 166.813 84.5405 166.768 84.526C166.706 84.5004 166.492 84.5035 166.352 84.515C165.706 84.5608 165.033 84.6866 164.368 84.8227C163.03 85.0846 161.691 85.4297 160.334 85.7727L160.352 85.7749C159.006 86.2672 157.638 86.7848 156.252 87.3003L155.427 87.6122L155.988 86.9366C157.485 85.1384 159.005 83.3057 160.545 81.4569L160.706 81.2627L160.898 81.4514C161.833 82.3552 162.996 83.2022 164.28 83.4152C164.918 83.5165 165.574 83.3794 166.082 82.994C166.32 82.7808 166.595 82.5719 166.707 82.3166C166.831 82.0532 166.857 81.7417 166.82 81.4227C166.655 80.2839 165.99 79.2077 165.325 78.224C164.642 77.2289 163.877 76.2985 163.081 75.4015C162.688 74.9489 162.284 74.5136 161.869 74.0863C161.443 73.6762 161.075 73.171 160.609 72.9506C160.119 72.6904 159.613 72.7338 159.003 72.793C158.413 72.8451 157.833 72.8891 157.252 72.9332L156.953 72.9541L156.988 72.6528C157.105 71.8797 156.708 71.0566 156.135 70.4813C155.561 69.9061 154.778 69.5381 153.965 69.509C152.313 69.3552 150.74 70.2841 149.818 71.5194L149.751 71.6136L149.648 71.6202C148.808 71.6712 147.967 71.7221 147.209 71.7735L147.191 71.7714L147.173 71.7693C146.312 71.6699 145.435 71.874 144.724 72.3286C143.984 72.7892 143.507 73.4652 143.146 74.2656C142.353 75.8305 141.573 77.3599 140.816 78.8549C139.293 81.8439 137.85 84.7033 136.481 87.3956L136.494 87.286C137.492 96.313 138.315 103.728 138.887 108.902C139.157 111.46 139.37 113.474 139.515 114.87C139.577 115.534 139.628 116.058 139.668 116.433C139.702 116.788 139.699 116.973 139.699 116.973L139.721 116.939Z" fill="#EB996E"/>
<path d="M159.282 92.638C159.247 92.5323 161.056 91.8157 163.54 90.9458L165.116 90.3967L163.752 91.359C163.399 91.6051 163.074 91.9285 162.807 92.3141C162.362 92.9567 162.128 93.6978 162.106 94.3708C162.083 95.0529 162.244 95.6638 162.449 96.1409C162.884 97.1073 163.439 97.5231 163.386 97.5817C163.372 97.6263 162.705 97.2994 162.144 96.2907C161.876 95.7971 161.656 95.1332 161.661 94.3657C161.665 93.6073 161.911 92.7658 162.411 92.0463C162.712 91.6091 163.088 91.2453 163.49 90.9771L163.693 91.3892C161.195 92.2113 159.316 92.7438 159.282 92.638Z" fill="#EB996E"/>
<path d="M149.196 83.6537C149.145 83.6109 149.67 82.8386 150.562 81.6275C151.453 80.4163 152.721 78.7582 154.135 76.9504C154.852 76.043 155.517 75.1851 156.164 74.4084C156.809 73.6408 157.54 73.0127 158.28 72.7094C159.011 72.4052 159.687 72.4184 160.111 72.5229C160.544 72.6284 160.728 72.7978 160.717 72.815C160.704 72.8505 160.484 72.7419 160.08 72.7045C159.678 72.658 159.078 72.709 158.42 73.0218C157.072 73.6156 155.967 75.4684 154.519 77.2445C153.104 79.0523 151.794 80.6778 150.835 81.8348C149.875 82.9919 149.248 83.6875 149.196 83.6537Z" fill="#EB996E"/>
<path d="M142.115 82.7899C142.063 82.7561 142.396 82.0449 143.017 80.9229C143.637 79.81 144.537 78.2852 145.597 76.6585C146.658 75.0228 147.677 73.5858 148.445 72.5639C149.212 71.542 149.726 70.9444 149.778 70.9781C149.829 71.021 149.418 71.6861 148.72 72.753C147.92 73.9747 147.008 75.3685 145.995 76.9081C145 78.4589 144.095 79.8629 143.305 81.0856C142.615 82.1536 142.169 82.8053 142.108 82.7705L142.115 82.7899Z" fill="#EB996E"/>
<path d="M115.508 167.714C115.508 167.714 115.371 168.097 115.047 168.735C114.676 169.46 114.209 170.368 113.658 171.443C112.476 173.731 110.859 176.885 109.126 180.405C107.393 183.925 105.881 187.137 104.796 189.465C104.281 190.553 103.85 191.474 103.494 192.22C103.178 192.868 102.999 193.218 102.963 193.204C102.937 193.192 103.064 192.818 103.327 192.145C103.59 191.472 103.98 190.508 104.487 189.327C105.502 186.964 106.962 183.718 108.695 180.198C110.428 176.678 112.1 173.53 113.352 171.287C113.982 170.166 114.504 169.264 114.872 168.65C115.239 168.035 115.464 167.7 115.49 167.712L115.508 167.714Z" fill="#EB996E"/>
<path d="M142.986 198.252C142.986 198.252 142.975 198.343 142.936 198.523C142.885 198.721 142.818 198.982 142.735 199.296C142.551 200.006 142.288 201.003 141.948 202.259C141.596 203.542 141.172 205.121 140.584 206.923C139.995 208.724 139.249 210.767 138.15 212.898C137.042 215.018 135.507 217.229 133.346 219.071C131.211 220.925 128.646 222.572 125.742 223.865C122.836 225.168 119.597 226.061 116.187 226.593C114.47 226.839 112.688 226.929 110.902 226.723C109.107 226.525 107.333 225.978 105.673 225.175C102.348 223.514 99.7336 220.853 97.9003 217.93C96.0293 215.011 94.8259 211.856 93.9609 208.822C93.0991 205.761 92.7295 202.776 92.2114 200.032C91.6943 197.28 91.211 194.716 90.7768 192.371C89.8798 187.687 89.2245 183.882 88.8525 181.238C88.6614 179.921 88.5302 178.887 88.4526 178.194C88.4163 177.866 88.3909 177.604 88.3683 177.397C88.3517 177.22 88.3439 177.126 88.3531 177.127C88.3531 177.127 88.3802 177.214 88.4151 177.394C88.4469 177.601 88.4916 177.856 88.5463 178.186C88.6665 178.912 88.8272 179.93 89.0317 181.213C89.4699 183.845 90.1731 187.637 91.1088 192.307C91.5716 194.647 92.064 197.211 92.6096 199.958C93.1541 202.714 93.5339 205.691 94.401 208.706C95.2692 211.712 96.4596 214.82 98.3094 217.681C100.122 220.546 102.671 223.135 105.898 224.748C107.514 225.536 109.225 226.067 110.966 226.249C112.706 226.45 114.449 226.374 116.129 226.133C119.5 225.615 122.709 224.737 125.574 223.466C128.439 222.196 130.99 220.594 133.102 218.774C135.23 216.975 136.749 214.827 137.861 212.744C138.975 210.652 139.737 208.63 140.342 206.849C140.947 205.059 141.397 203.491 141.777 202.212C142.144 200.958 142.444 199.975 142.646 199.267C142.747 198.955 142.822 198.705 142.891 198.509C142.948 198.34 142.986 198.252 142.986 198.252Z" fill="#EB996E"/>
</g>
<defs>
<clipPath id="clip0_68_4028">
<rect width="149" height="257" fill="white" transform="translate(102.98) rotate(6.58688)"/>
</clipPath>
</defs>
</svg>
